<svg width="22" height="20" viewBox="0 0 22 20" fill="none" xmlns="http://www.w3.org/2000/svg">
<path d="M18.7242 0H16.7601V1.96408C16.7601 2.35689 16.4328 2.61877 16.1054 2.61877C15.7781 2.61877 15.4507 2.35689 15.4507 1.96408V0H4.97566V1.96408C4.97566 2.35689 4.64832 2.61877 4.32097 2.61877C3.99363 2.61877 3.66628 2.35689 3.66628 1.96408V0H1.7022C0.720162 0 0 0.8511 0 1.96408V4.32097H20.9502V1.96408C20.9502 0.8511 19.7717 0 18.7242 0ZM0 5.69583V17.6767C0 18.8551 0.720162 19.6408 1.76767 19.6408H18.7897C19.8372 19.6408 21.0156 18.7897 21.0156 17.6767V5.69583H0ZM5.82676 16.6947H4.2555C3.99363 16.6947 3.73175 16.4983 3.73175 16.1709V14.5342C3.73175 14.2723 3.92816 14.0104 4.2555 14.0104H5.89223C6.15411 14.0104 6.41599 14.2068 6.41599 14.5342V16.1709C6.35052 16.4983 6.15411 16.6947 5.82676 16.6947ZM5.82676 10.8024H4.2555C3.99363 10.8024 3.73175 10.606 3.73175 10.2787V8.64194C3.73175 8.38007 3.92816 8.11819 4.2555 8.11819H5.89223C6.15411 8.11819 6.41599 8.3146 6.41599 8.64194V10.2787C6.35052 10.606 6.15411 10.8024 5.82676 10.8024ZM11.0643 16.6947H9.42757C9.1657 16.6947 8.90382 16.4983 8.90382 16.1709V14.5342C8.90382 14.2723 9.10023 14.0104 9.42757 14.0104H11.0643C11.3262 14.0104 11.5881 14.2068 11.5881 14.5342V16.1709C11.5881 16.4983 11.3917 16.6947 11.0643 16.6947ZM11.0643 10.8024H9.42757C9.1657 10.8024 8.90382 10.606 8.90382 10.2787V8.64194C8.90382 8.38007 9.10023 8.11819 9.42757 8.11819H11.0643C11.3262 8.11819 11.5881 8.3146 11.5881 8.64194V10.2787C11.5881 10.606 11.3917 10.8024 11.0643 10.8024ZM16.3018 16.6947H14.6651C14.4032 16.6947 14.1414 16.4983 14.1414 16.1709V14.5342C14.1414 14.2723 14.3378 14.0104 14.6651 14.0104H16.3018C16.5637 14.0104 16.8256 14.2068 16.8256 14.5342V16.1709C16.8256 16.4983 16.6292 16.6947 16.3018 16.6947ZM16.3018 10.8024H14.6651C14.4032 10.8024 14.1414 10.606 14.1414 10.2787V8.64194C14.1414 8.38007 14.3378 8.11819 14.6651 8.11819H16.3018C16.5637 8.11819 16.8256 8.3146 16.8256 8.64194V10.2787C16.8256 10.606 16.6292 10.8024 16.3018 10.8024Z" fill="white"/>
</svg>
