<svg width="24" height="24" viewBox="0 0 24 24" fill="none" xmlns="http://www.w3.org/2000/svg">
<path fill-rule="evenodd" clip-rule="evenodd" d="M12 2C12.2652 2 12.5196 2.10536 12.7071 2.29289C12.8946 2.48043 13 2.73478 13 3V4C13 4.26522 12.8946 4.51957 12.7071 4.70711C12.5196 4.89464 12.2652 5 12 5C11.7348 5 11.4804 4.89464 11.2929 4.70711C11.1054 4.51957 11 4.26522 11 4V3C11 2.73478 11.1054 2.48043 11.2929 2.29289C11.4804 2.10536 11.7348 2 12 2ZM19.207 4.793C19.3945 4.98053 19.4998 5.23484 19.4998 5.5C19.4998 5.76516 19.3945 6.01947 19.207 6.207L18.707 6.707C18.6148 6.80251 18.5044 6.87869 18.3824 6.9311C18.2604 6.98351 18.1292 7.0111 17.9964 7.01225C17.8636 7.0134 17.7319 6.9881 17.609 6.93782C17.4862 6.88754 17.3745 6.81329 17.2806 6.7194C17.1867 6.6255 17.1125 6.51385 17.0622 6.39095C17.0119 6.26806 16.9866 6.13638 16.9877 6.0036C16.9889 5.87082 17.0165 5.7396 17.0689 5.6176C17.1213 5.49559 17.1975 5.38525 17.293 5.293L17.793 4.793C17.9805 4.60553 18.2348 4.50021 18.5 4.50021C18.7652 4.50021 19.0195 4.60553 19.207 4.793ZM19 13C19 12.7348 19.1054 12.4804 19.2929 12.2929C19.4804 12.1054 19.7348 12 20 12H21C21.2652 12 21.5196 12.1054 21.7071 12.2929C21.8946 12.4804 22 12.7348 22 13C22 13.2652 21.8946 13.5196 21.7071 13.7071C21.5196 13.8946 21.2652 14 21 14H20C19.7348 14 19.4804 13.8946 19.2929 13.7071C19.1054 13.5196 19 13.2652 19 13ZM3 12C2.73478 12 2.48043 12.1054 2.29289 12.2929C2.10536 12.4804 2 12.7348 2 13C2 13.2652 2.10536 13.5196 2.29289 13.7071C2.48043 13.8946 2.73478 14 3 14H4C4.26522 14 4.51957 13.8946 4.70711 13.7071C4.89464 13.5196 5 13.2652 5 13C5 12.7348 4.89464 12.4804 4.70711 12.2929C4.51957 12.1054 4.26522 12 4 12H3ZM6.207 4.793C6.0184 4.61084 5.7658 4.51005 5.5036 4.51233C5.2414 4.5146 4.99059 4.61977 4.80518 4.80518C4.61977 4.99059 4.5146 5.2414 4.51233 5.5036C4.51005 5.7658 4.61084 6.0184 4.793 6.207L5.293 6.707C5.4816 6.88916 5.7342 6.98995 5.9964 6.98767C6.2586 6.9854 6.50941 6.88023 6.69482 6.69482C6.88023 6.50941 6.9854 6.2586 6.98767 5.9964C6.98995 5.7342 6.88916 5.4816 6.707 5.293L6.207 4.793ZM19.207 19.207C19.3945 19.0195 19.4998 18.7652 19.4998 18.5C19.4998 18.2348 19.3945 17.9805 19.207 17.793L18.707 17.293C18.5184 17.1108 18.2658 17.01 18.0036 17.0123C17.7414 17.0146 17.4906 17.1198 17.3052 17.3052C17.1198 17.4906 17.0146 17.7414 17.0123 18.0036C17.01 18.2658 17.1108 18.5184 17.293 18.707L17.793 19.207C17.9805 19.3945 18.2348 19.4998 18.5 19.4998C18.7652 19.4998 19.0195 19.3945 19.207 19.207ZM13 21C13 21.2652 12.8946 21.5196 12.7071 21.7071C12.5196 21.8946 12.2652 22 12 22C11.7348 22 11.4804 21.8946 11.2929 21.7071C11.1054 21.5196 11 21.2652 11 21V20C11 19.7348 11.1054 19.4804 11.2929 19.2929C11.4804 19.1054 11.7348 19 12 19C12.2652 19 12.5196 19.1054 12.7071 19.2929C12.8946 19.4804 13 19.7348 13 20V21ZM4.793 19.207C4.98053 19.3945 5.23484 19.4998 5.5 19.4998C5.76516 19.4998 6.01947 19.3945 6.207 19.207L6.707 18.707C6.80251 18.6148 6.87869 18.5044 6.9311 18.3824C6.98351 18.2604 7.0111 18.1292 7.01225 17.9964C7.0134 17.8636 6.9881 17.7319 6.93782 17.609C6.88754 17.4862 6.81329 17.3745 6.7194 17.2806C6.6255 17.1867 6.51385 17.1125 6.39095 17.0622C6.26806 17.0119 6.13638 16.9866 6.0036 16.9877C5.87082 16.9889 5.7396 17.0165 5.6176 17.0689C5.49559 17.1213 5.38525 17.1975 5.293 17.293L4.793 17.793C4.60553 17.9805 4.50021 18.2348 4.50021 18.5C4.50021 18.7652 4.60553 19.0195 4.793 19.207ZM12 6C10.4087 6 8.88258 6.63214 7.75736 7.75736C6.63214 8.88258 6 10.4087 6 12C6 13.5913 6.63214 15.1174 7.75736 16.2426C8.88258 17.3679 10.4087 18 12 18C13.5913 18 15.1174 17.3679 16.2426 16.2426C17.3679 15.1174 18 13.5913 18 12C18 10.4087 17.3679 8.88258 16.2426 7.75736C15.1174 6.63214 13.5913 6 12 6ZM8 12C8 10.9391 8.42143 9.92172 9.17157 9.17157C9.92172 8.42143 10.9391 8 12 8C13.0609 8 14.0783 8.42143 14.8284 9.17157C15.5786 9.92172 16 10.9391 16 12C16 13.0609 15.5786 14.0783 14.8284 14.8284C14.0783 15.5786 13.0609 16 12 16C10.9391 16 9.92172 15.5786 9.17157 14.8284C8.42143 14.0783 8 13.0609 8 12Z" fill="#121117"/>
</svg>
