<svg width="20" height="20" viewBox="0 0 20 20" fill="none" xmlns="http://www.w3.org/2000/svg">
<path d="M9.87441 9.69183C10.988 9.69183 11.9523 9.2924 12.7402 8.50437C13.5281 7.7165 13.9275 6.75247 13.9275 5.63877C13.9275 4.52539 13.5281 3.56126 12.74 2.7731C11.952 1.98533 10.9879 1.58594 9.87441 1.58594C8.76067 1.58594 7.79661 1.98533 7.00874 2.77323C6.22087 3.56113 5.82132 4.52529 5.82132 5.63877C5.82132 6.75247 6.22084 7.71663 7.00887 8.50454C7.79691 9.29231 8.76107 9.69183 9.87441 9.69183ZM16.9662 14.5255C16.9434 14.1976 16.8975 13.8399 16.8298 13.4622C16.7615 13.0816 16.6736 12.7219 16.5683 12.3931C16.4596 12.0533 16.3117 11.7177 16.1289 11.3961C15.9391 11.0623 15.7162 10.7716 15.4661 10.5325C15.2046 10.2823 14.8844 10.0811 14.5142 9.93431C14.1452 9.78839 13.7363 9.71444 13.2989 9.71444C13.1271 9.71444 12.961 9.7849 12.6402 9.9938C12.4121 10.1423 12.1834 10.2898 11.954 10.4362C11.7335 10.5767 11.4349 10.7082 11.066 10.8274C10.7062 10.9438 10.3408 11.0029 9.98018 11.0029C9.61957 11.0029 9.25429 10.9438 8.89405 10.8274C8.52562 10.7083 8.22699 10.5768 8.00679 10.4363C7.75142 10.2731 7.52037 10.1242 7.31995 9.99364C6.99951 9.78477 6.83324 9.71428 6.66148 9.71428C6.22393 9.71428 5.81517 9.78836 5.44632 9.93448C5.07631 10.081 4.75599 10.2821 4.49421 10.5326C4.24427 10.7719 4.02127 11.0624 3.83176 11.3961C3.64909 11.7177 3.5012 12.0532 3.39231 12.3933C3.28714 12.7221 3.19922 13.0816 3.13092 13.4622C3.06325 13.8394 3.01731 14.1972 2.99456 14.5259C2.97194 14.8566 2.96072 15.188 2.96094 15.5195C2.96094 16.3979 3.24017 17.109 3.79081 17.6335C4.33465 18.151 5.05422 18.4136 5.92928 18.4136H14.0319C14.9069 18.4136 15.6262 18.1512 16.1702 17.6335C16.721 17.1094 17.0002 16.3982 17.0002 15.5194C17.0001 15.1804 16.9887 14.8459 16.9662 14.5255Z" fill="#4D4C5C"/>
</svg>
