<svg width="24" height="24" viewBox="0 0 24 24" fill="none" xmlns="http://www.w3.org/2000/svg">
<g clip-path="url(#clip0_21000_6145)">
<path d="M5.60853 4.86644L15.1762 2.25487L14.6695 1.23073C14.338 0.565033 13.5295 0.290132 12.8638 0.621631L4.29871 4.86644H5.60853ZM18.1462 2.33033C18.0276 2.33033 17.909 2.3465 17.7905 2.37885L15.5428 2.99333L8.67827 4.86644H19.8657L19.4453 3.32483C19.2835 2.72382 18.7391 2.33033 18.1462 2.33033ZM21.2698 5.80973H1.35025C0.924424 5.80973 0.544413 6.00647 0.296463 6.31641C0.183268 6.45925 0.0970241 6.62365 0.0485121 6.80422C0.0188658 6.91742 0 7.036 0 7.15728V22.1718C0 22.9156 0.603706 23.5193 1.34756 23.5193H21.2672C22.011 23.5193 22.6147 22.9156 22.6147 22.1718V18.4121H14.6183C13.3543 18.4121 12.3275 17.3852 12.3275 16.1212V13.1243C12.3275 12.5044 12.5754 11.9411 12.977 11.5288C13.3327 11.1622 13.8098 10.9143 14.3434 10.8523C14.4323 10.8415 14.524 10.8361 14.6156 10.8361H22.6147V7.15728C22.6174 6.41343 22.0137 5.80973 21.2698 5.80973Z" fill="black"/>
<path d="M23.5606 12.1245C23.4259 12.0005 23.2668 11.9062 23.089 11.8442C22.9515 11.7984 22.806 11.7715 22.6524 11.7715H14.6182C13.8743 11.7715 13.2707 12.3752 13.2707 13.119V16.1187C13.2707 16.8625 13.8743 17.4662 14.6182 17.4662H22.6524C22.806 17.4662 22.9515 17.4393 23.089 17.3935C23.2668 17.3342 23.4259 17.2372 23.5606 17.1132C23.8301 16.8679 23.9999 16.5122 23.9999 16.1187V13.119C23.9999 12.7255 23.8301 12.3697 23.5606 12.1245ZM17.4319 14.887C17.4319 15.2589 17.1301 15.5608 16.7581 15.5608H16.3108C15.9388 15.5608 15.637 15.2589 15.637 14.887V14.4396C15.637 14.224 15.7367 14.0326 15.8957 13.9114C16.0116 13.8224 16.1545 13.7658 16.3108 13.7658H16.7581C17.1301 13.7658 17.4319 14.0677 17.4319 14.4396V14.887Z" fill="black"/>
</g>
<defs>
<clipPath id="clip0_21000_6145">
<rect width="24" height="24" fill="white"/>
</clipPath>
</defs>
</svg>
