<svg width="24" height="24" viewBox="0 0 24 24" fill="none" xmlns="http://www.w3.org/2000/svg">
<path d="M20.6088 1.75293H18.5593V3.8024C18.5593 4.2123 18.2177 4.48556 17.8762 4.48556C17.5346 4.48556 17.193 4.2123 17.193 3.8024V1.75293H6.26249V3.8024C6.26249 4.2123 5.92091 4.48556 5.57934 4.48556C5.23776 4.48556 4.89618 4.2123 4.89618 3.8024V1.75293H2.84671C1.82197 1.75293 1.0705 2.64103 1.0705 3.8024V6.26177H22.9315V3.8024C22.9315 2.64103 21.7019 1.75293 20.6088 1.75293ZM1.0705 7.6964V20.1982C1.0705 21.4279 1.82197 22.2477 2.91502 22.2477H20.6771C21.7702 22.2477 22.9999 21.3596 22.9999 20.1982V7.6964H1.0705ZM7.1506 19.1734H5.51102C5.23776 19.1734 4.96449 18.9685 4.96449 18.6269V16.919C4.96449 16.6458 5.16944 16.3725 5.51102 16.3725H7.21891C7.49218 16.3725 7.76544 16.5775 7.76544 16.919V18.6269C7.69712 18.9685 7.49218 19.1734 7.1506 19.1734ZM7.1506 13.025H5.51102C5.23776 13.025 4.96449 12.8201 4.96449 12.4785V10.7706C4.96449 10.4973 5.16944 10.2241 5.51102 10.2241H7.21891C7.49218 10.2241 7.76544 10.429 7.76544 10.7706V12.4785C7.69712 12.8201 7.49218 13.025 7.1506 13.025ZM12.6159 19.1734H10.908C10.6347 19.1734 10.3614 18.9685 10.3614 18.6269V16.919C10.3614 16.6458 10.5664 16.3725 10.908 16.3725H12.6159C12.8891 16.3725 13.1624 16.5775 13.1624 16.919V18.6269C13.1624 18.9685 12.9574 19.1734 12.6159 19.1734ZM12.6159 13.025H10.908C10.6347 13.025 10.3614 12.8201 10.3614 12.4785V10.7706C10.3614 10.4973 10.5664 10.2241 10.908 10.2241H12.6159C12.8891 10.2241 13.1624 10.429 13.1624 10.7706V12.4785C13.1624 12.8201 12.9574 13.025 12.6159 13.025ZM18.0811 19.1734H16.3732C16.1 19.1734 15.8267 18.9685 15.8267 18.6269V16.919C15.8267 16.6458 16.0316 16.3725 16.3732 16.3725H18.0811C18.3544 16.3725 18.6276 16.5775 18.6276 16.919V18.6269C18.6276 18.9685 18.4227 19.1734 18.0811 19.1734ZM18.0811 13.025H16.3732C16.1 13.025 15.8267 12.8201 15.8267 12.4785V10.7706C15.8267 10.4973 16.0316 10.2241 16.3732 10.2241H18.0811C18.3544 10.2241 18.6276 10.429 18.6276 10.7706V12.4785C18.6276 12.8201 18.4227 13.025 18.0811 13.025Z" fill="black"/>
</svg>
