<svg width="25" height="25" viewBox="0 0 25 25" fill="none" xmlns="http://www.w3.org/2000/svg">
<path fill-rule="evenodd" clip-rule="evenodd" d="M8.68798 21.8498C8.7615 21.9085 8.8501 21.9453 8.94358 21.9559C9.03707 21.9665 9.13165 21.9506 9.21646 21.9098C9.30127 21.8691 9.37286 21.8052 9.42302 21.7256C9.47317 21.646 9.49985 21.5539 9.49998 21.4598V15.5398C9.49985 15.4457 9.47317 15.3536 9.42302 15.274C9.37286 15.1944 9.30127 15.1306 9.21646 15.0898C9.13165 15.0491 9.03707 15.0331 8.94358 15.0437C8.8501 15.0543 8.7615 15.0911 8.68798 15.1498L4.98798 18.1098C4.92959 18.1567 4.88246 18.216 4.85007 18.2835C4.81769 18.351 4.80087 18.4249 4.80087 18.4998C4.80087 18.5747 4.81769 18.6486 4.85007 18.7161C4.88246 18.7836 4.92959 18.843 4.98798 18.8898L8.68798 21.8498ZM16.312 3.14982C16.2385 3.09111 16.1499 3.05433 16.0564 3.04372C15.9629 3.03311 15.8683 3.04908 15.7835 3.08982C15.6987 3.13055 15.6271 3.19439 15.5769 3.27399C15.5268 3.35359 15.5001 3.44573 15.5 3.53982V9.45982C15.5001 9.5539 15.5268 9.64604 15.5769 9.72564C15.6271 9.80524 15.6987 9.86908 15.7835 9.90981C15.8683 9.95055 15.9629 9.96653 16.0564 9.95591C16.1499 9.9453 16.2385 9.90853 16.312 9.84982L20.012 6.88982C20.0704 6.84297 20.1175 6.7836 20.1499 6.7161C20.1823 6.6486 20.1991 6.57468 20.1991 6.49982C20.1991 6.42495 20.1823 6.35104 20.1499 6.28354C20.1175 6.21603 20.0704 6.15667 20.012 6.10982L16.312 3.14982Z" fill="black"/>
<path fill-rule="evenodd" clip-rule="evenodd" d="M18.5001 6.5C18.5001 6.23478 18.3947 5.98043 18.2072 5.79289C18.0196 5.60536 17.7653 5.5 17.5001 5.5H8.50007C7.49879 5.49978 6.51337 5.75013 5.63363 6.22826C4.75388 6.70639 4.00778 7.39707 3.46331 8.23738C2.91885 9.07769 2.59334 10.0409 2.51644 11.0392C2.43954 12.0375 2.61371 13.0392 3.02307 13.953C3.13288 14.1929 3.33307 14.3797 3.57999 14.4726C3.82692 14.5656 4.10057 14.5572 4.34134 14.4493C4.5821 14.3414 4.77046 14.1427 4.86538 13.8965C4.96029 13.6503 4.95407 13.3766 4.84807 13.135C4.57521 12.5258 4.45916 11.858 4.5105 11.1924C4.56183 10.5269 4.77891 9.88473 5.14195 9.32455C5.505 8.76437 6.00246 8.30396 6.58901 7.98528C7.17556 7.66659 7.83253 7.49976 8.50007 7.5H17.5001C17.7653 7.5 18.0196 7.39464 18.2072 7.20711C18.3947 7.01957 18.5001 6.76522 18.5001 6.5ZM6.50007 18.5C6.50007 18.7652 6.60542 19.0196 6.79296 19.2071C6.9805 19.3946 7.23485 19.5 7.50007 19.5H16.5001C17.5013 19.5002 18.4868 19.2499 19.3665 18.7717C20.2463 18.2936 20.9924 17.6029 21.5368 16.7626C22.0813 15.9223 22.4068 14.9591 22.4837 13.9608C22.5606 12.9625 22.3864 11.9608 21.9771 11.047C21.8672 10.8071 21.6671 10.6203 21.4201 10.5274C21.1732 10.4344 20.8996 10.4428 20.6588 10.5507C20.418 10.6586 20.2297 10.8573 20.1348 11.1035C20.0398 11.3497 20.0461 11.6234 20.1521 11.865C20.4249 12.4742 20.541 13.142 20.4896 13.8076C20.4383 14.4732 20.2212 15.1153 19.8582 15.6755C19.4951 16.2356 18.9977 16.696 18.4111 17.0147C17.8246 17.3334 17.1676 17.5002 16.5001 17.5H7.50007C7.23485 17.5 6.9805 17.6054 6.79296 17.7929C6.60542 17.9804 6.50007 18.2348 6.50007 18.5Z" fill="black"/>
</svg>
