<svg width="24" height="24" viewBox="0 0 24 24" fill="none" xmlns="http://www.w3.org/2000/svg">
<g clip-path="url(#clip0_22694_13954)">
<path d="M1.41176 18.3529H11.2941V19.8861C10.4725 20.1775 9.88235 20.9621 9.88235 21.8824C9.88235 23.0501 10.8324 24 12 24C13.1677 24 14.1176 23.0501 14.1176 21.8824C14.1176 20.9621 13.5275 20.1775 12.7059 19.8861V18.3529H22.5882V3.52941H1.41176V18.3529ZM12.7059 6.35294H19.7647V7.76471H12.7059V6.35294ZM12.7059 9.17647H19.7647V10.5882H12.7059V9.17647ZM12.7059 12.7059H19.7647V14.1176H12.7059V12.7059ZM5.44028 7.97148L6.35294 8.88409L8.67736 6.55972L9.67562 7.55798L6.35294 10.8807L4.44207 8.96974L5.44028 7.97148ZM4.23529 12.7059H11.2941V14.1176H4.23529V12.7059ZM0 0H24V2.11765H0V0Z" fill="black"/>
</g>
<defs>
<clipPath id="clip0_22694_13954">
<rect width="24" height="24" fill="white"/>
</clipPath>
</defs>
</svg>
