<svg width="24" height="24" viewBox="0 0 24 24" fill="none" xmlns="http://www.w3.org/2000/svg">
<path fill-rule="evenodd" clip-rule="evenodd" d="M12 4C7.37 4 4 6.743 4 10.5C4 12.984 5.429 14.959 7.7 16.064C7.8745 16.1486 8.02062 16.2822 8.12058 16.4483C8.22054 16.6145 8.27002 16.8062 8.263 17C8.263 17.262 8.268 17.502 8.272 17.73C8.278 18.078 8.284 18.396 8.272 18.717C8.263 18.98 8.242 19.261 8.206 19.601C9.545 19.096 10.552 18.363 11.16 17.457C11.2519 17.3147 11.3785 17.198 11.5279 17.1181C11.6773 17.0381 11.8446 16.9975 12.014 17C16.639 16.994 20 14.253 20 10.5C20 6.743 16.63 4 12 4ZM12.514 18.99C17.61 18.787 22 15.573 22 10.5C22 5.257 17.31 2 12 2C6.69 2 2 5.257 2 10.5C2 13.644 3.724 16.127 6.268 17.57L6.273 17.853C6.279 18.14 6.284 18.36 6.273 18.645C6.257 19.103 6.199 19.681 6.013 20.841C5.98706 21.0025 6.0011 21.1678 6.05391 21.3226C6.10672 21.4774 6.19668 21.6168 6.31591 21.7287C6.43514 21.8407 6.58 21.9216 6.73779 21.9646C6.89559 22.0075 7.0615 22.0111 7.221 21.975C9.377 21.487 11.291 20.525 12.514 18.99Z" fill="#121117"/>
</svg>
