<svg width="14" height="14" viewBox="0 0 14 14" fill="none" xmlns="http://www.w3.org/2000/svg">
<g clip-path="url(#clip0_16694_3605)">
<path d="M9.8 7.65551C14 7.65551 14 10.4391 14 10.4391V11.8309H9.8V10.4391C9.8 10.4391 9.8 9.26305 8.995 8.21223C8.876 8.05218 8.729 7.89908 8.575 7.75294C8.939 7.69726 9.338 7.65551 9.8 7.65551ZM0 10.4391C0 10.4391 0 7.65551 4.2 7.65551C8.4 7.65551 8.4 10.4391 8.4 10.4391V11.8309H0V10.4391ZM4.9 13.2228V14.6146H9.1V13.2228L11.2 15.3105L9.1 17.3982V16.0064H4.9V17.3982L2.8 15.3105L4.9 13.2228ZM4.2 2.08826C3.038 2.08826 2.1 3.02077 2.1 4.17598C2.1 5.33118 3.038 6.2637 4.2 6.2637C5.362 6.2637 6.3 5.33118 6.3 4.17598C6.3 3.02077 5.362 2.08826 4.2 2.08826ZM9.8 2.08826C8.638 2.08826 7.7 3.02077 7.7 4.17598C7.7 5.33118 8.638 6.2637 9.8 6.2637C10.962 6.2637 11.9 5.33118 11.9 4.17598C11.9 3.02077 10.962 2.08826 9.8 2.08826Z" fill="black"/>
</g>
<defs>
<clipPath id="clip0_16694_3605">
<rect width="13.9181" height="13.2222" fill="white"/>
</clipPath>
</defs>
</svg>
