<svg width="14" height="14" viewBox="0 0 14 14" fill="none" xmlns="http://www.w3.org/2000/svg">
<path fill-rule="evenodd" clip-rule="evenodd" d="M0.29273 0.305229C0.480221 0.117795 0.73448 0.0124994 0.999593 0.0124994C1.26471 0.0124994 1.51896 0.117795 1.70646 0.305229L6.99843 5.59721L12.2904 0.305229C12.3826 0.209738 12.493 0.13357 12.6149 0.0811711C12.7369 0.0287723 12.8681 0.00119134 13.0009 3.77497e-05C13.1336 -0.00111584 13.2653 0.0241808 13.3881 0.0744519C13.511 0.124723 13.6226 0.198962 13.7165 0.292836C13.8104 0.386711 13.8846 0.498341 13.9349 0.621214C13.9852 0.744086 14.0105 0.875741 14.0093 1.00849C14.0082 1.14125 13.9806 1.27244 13.9282 1.39442C13.8758 1.5164 13.7996 1.62673 13.7041 1.71896L8.41216 7.01093L13.7041 12.3029C13.8863 12.4915 13.987 12.744 13.9848 13.0062C13.9825 13.2683 13.8773 13.5191 13.692 13.7045C13.5066 13.8898 13.2558 13.995 12.9937 13.9973C12.7315 13.9995 12.479 13.8988 12.2904 13.7166L6.99843 8.42466L1.70646 13.7166C1.51789 13.8988 1.26534 13.9995 1.00319 13.9973C0.741045 13.995 0.490281 13.8898 0.304909 13.7045C0.119537 13.5191 0.0143878 13.2683 0.0121098 13.0062C0.00983182 12.744 0.110607 12.4915 0.29273 12.3029L5.5847 7.01093L0.29273 1.71896C0.105295 1.53146 0 1.27721 0 1.01209C0 0.746979 0.105295 0.492721 0.29273 0.305229Z" fill="black"/>
</svg>
