<svg width="24" height="24" viewBox="0 0 24 24" fill="none" xmlns="http://www.w3.org/2000/svg">
<path d="M20.6089 1.75293H18.5594V3.8024C18.5594 4.2123 18.2178 4.48556 17.8762 4.48556C17.5347 4.48556 17.1931 4.2123 17.1931 3.8024V1.75293H6.26255V3.8024C6.26255 4.2123 5.92097 4.48556 5.5794 4.48556C5.23782 4.48556 4.89624 4.2123 4.89624 3.8024V1.75293H2.84677C1.82203 1.75293 1.07056 2.64103 1.07056 3.8024V6.26177H22.9316V3.8024C22.9316 2.64103 21.7019 1.75293 20.6089 1.75293ZM1.07056 7.6964V20.1982C1.07056 21.4279 1.82203 22.2477 2.91508 22.2477H20.6772C21.7702 22.2477 22.9999 21.3596 22.9999 20.1982V7.6964H1.07056ZM7.15066 19.1734H5.51108C5.23782 19.1734 4.96455 18.9685 4.96455 18.6269V16.919C4.96455 16.6458 5.1695 16.3725 5.51108 16.3725H7.21897C7.49224 16.3725 7.7655 16.5775 7.7655 16.919V18.6269C7.69718 18.9685 7.49224 19.1734 7.15066 19.1734ZM7.15066 13.025H5.51108C5.23782 13.025 4.96455 12.8201 4.96455 12.4785V10.7706C4.96455 10.4973 5.1695 10.2241 5.51108 10.2241H7.21897C7.49224 10.2241 7.7655 10.429 7.7655 10.7706V12.4785C7.69718 12.8201 7.49224 13.025 7.15066 13.025ZM12.6159 19.1734H10.908C10.6348 19.1734 10.3615 18.9685 10.3615 18.6269V16.919C10.3615 16.6458 10.5664 16.3725 10.908 16.3725H12.6159C12.8892 16.3725 13.1624 16.5775 13.1624 16.919V18.6269C13.1624 18.9685 12.9575 19.1734 12.6159 19.1734ZM12.6159 13.025H10.908C10.6348 13.025 10.3615 12.8201 10.3615 12.4785V10.7706C10.3615 10.4973 10.5664 10.2241 10.908 10.2241H12.6159C12.8892 10.2241 13.1624 10.429 13.1624 10.7706V12.4785C13.1624 12.8201 12.9575 13.025 12.6159 13.025ZM18.0812 19.1734H16.3733C16.1 19.1734 15.8268 18.9685 15.8268 18.6269V16.919C15.8268 16.6458 16.0317 16.3725 16.3733 16.3725H18.0812C18.3544 16.3725 18.6277 16.5775 18.6277 16.919V18.6269C18.6277 18.9685 18.4228 19.1734 18.0812 19.1734ZM18.0812 13.025H16.3733C16.1 13.025 15.8268 12.8201 15.8268 12.4785V10.7706C15.8268 10.4973 16.0317 10.2241 16.3733 10.2241H18.0812C18.3544 10.2241 18.6277 10.429 18.6277 10.7706V12.4785C18.6277 12.8201 18.4228 13.025 18.0812 13.025Z" fill="black"/>
</svg>
