<svg width="13" height="7" viewBox="0 0 13 7" fill="none" xmlns="http://www.w3.org/2000/svg">
<path fill-rule="evenodd" clip-rule="evenodd" d="M12.2565 0.494372C12.154 0.366126 12.0273 0.259324 11.8835 0.180067C11.7397 0.100809 11.5817 0.0506471 11.4186 0.0324464C11.2554 0.0142457 11.0903 0.0283626 10.9326 0.0739904C10.7749 0.119618 10.6277 0.195863 10.4995 0.298372L6.2805 3.67337L2.0605 0.298372C1.93303 0.189805 1.78504 0.107955 1.62533 0.0576797C1.46562 0.00740409 1.29743 -0.010272 1.13076 0.0057006C0.964083 0.0216732 0.802316 0.0709683 0.655059 0.150661C0.507802 0.230354 0.378056 0.33882 0.273524 0.469619C0.168991 0.600419 0.0918024 0.750886 0.0465392 0.912091C0.00127612 1.0733 -0.0111386 1.24195 0.0100316 1.40804C0.0312018 1.57414 0.0855255 1.73429 0.169778 1.87898C0.254031 2.02368 0.366495 2.14997 0.500496 2.25037L5.5005 6.25037C5.722 6.42725 5.99704 6.52359 6.2805 6.52359C6.56395 6.52359 6.83899 6.42725 7.0605 6.25037L12.0605 2.25037C12.1887 2.14788 12.2955 2.02113 12.3748 1.87737C12.4541 1.7336 12.5042 1.57562 12.5224 1.41247C12.5406 1.24931 12.5265 1.08417 12.4809 0.926469C12.4352 0.76877 12.359 0.621602 12.2565 0.493371V0.494372Z" fill="#121117"/>
</svg>
