<svg width="14" height="13" viewBox="0 0 14 13" fill="none" xmlns="http://www.w3.org/2000/svg">
<path fill-rule="evenodd" clip-rule="evenodd" d="M4.12656 12.5395C4.17558 12.5787 4.23464 12.6032 4.29696 12.6103C4.35928 12.6173 4.42234 12.6067 4.47888 12.5795C4.53542 12.5524 4.58315 12.5098 4.61659 12.4567C4.65002 12.4037 4.66781 12.3423 4.6679 12.2795V8.33286C4.66781 8.27014 4.65002 8.20871 4.61659 8.15564C4.58315 8.10258 4.53542 8.06002 4.47888 8.03286C4.42234 8.00571 4.35928 7.99505 4.29696 8.00213C4.23464 8.0092 4.17558 8.03372 4.12656 8.07286L1.6599 10.0462C1.62096 10.0774 1.58954 10.117 1.56795 10.162C1.54636 10.207 1.53516 10.2563 1.53516 10.3062C1.53516 10.3561 1.54636 10.4054 1.56795 10.4504C1.58954 10.4954 1.62096 10.535 1.6599 10.5662L4.12656 12.5395ZM9.20923 0.0728591C9.16022 0.0337197 9.10115 0.00920335 9.03883 0.00212781C8.97651 -0.00494773 8.91345 0.00570469 8.85691 0.0328606C8.80037 0.0600165 8.75264 0.102574 8.71921 0.155642C8.68577 0.20871 8.66798 0.270136 8.6679 0.332859V4.27953C8.66798 4.34225 8.68577 4.40368 8.71921 4.45674C8.75264 4.50981 8.80037 4.55237 8.85691 4.57952C8.91345 4.60668 8.97651 4.61733 9.03883 4.61026C9.10115 4.60318 9.16022 4.57867 9.20923 4.53953L11.6759 2.56619C11.7148 2.53496 11.7462 2.49538 11.7678 2.45038C11.7894 2.40538 11.8006 2.3561 11.8006 2.30619C11.8006 2.25628 11.7894 2.20701 11.7678 2.162C11.7462 2.117 11.7148 2.07743 11.6759 2.04619L9.20923 0.0728591Z" fill="black"/>
<path fill-rule="evenodd" clip-rule="evenodd" d="M10.6676 2.30607C10.6676 2.12926 10.5973 1.95969 10.4723 1.83467C10.3473 1.70964 10.1777 1.6394 10.0009 1.6394H4.0009C3.33338 1.63925 2.67644 1.80616 2.08994 2.12491C1.50344 2.44366 1.00604 2.90412 0.643063 3.46432C0.280087 4.02453 0.0630783 4.66667 0.0118143 5.33221C-0.0394498 5.99776 0.0766609 6.66555 0.349565 7.27474C0.422778 7.43467 0.556231 7.55919 0.720848 7.62117C0.885464 7.68314 1.0679 7.67755 1.22841 7.6056C1.38892 7.53366 1.5145 7.4012 1.57777 7.23708C1.64105 7.07296 1.6369 6.89048 1.56623 6.7294C1.38433 6.32326 1.30696 5.87804 1.34118 5.43434C1.37541 4.99064 1.52013 4.56255 1.76216 4.1891C2.00419 3.81565 2.33583 3.50871 2.72686 3.29626C3.11789 3.0838 3.55588 2.97258 4.0009 2.97274H10.0009C10.1777 2.97274 10.3473 2.9025 10.4723 2.77748C10.5973 2.65245 10.6676 2.48288 10.6676 2.30607ZM2.66756 10.3061C2.66756 10.4829 2.7378 10.6525 2.86283 10.7775C2.98785 10.9025 3.15742 10.9727 3.33423 10.9727H9.33423C10.0017 10.9729 10.6587 10.806 11.2452 10.4872C11.8317 10.1685 12.3291 9.70802 12.6921 9.14782C13.055 8.58761 13.2721 7.94548 13.3233 7.27993C13.3746 6.61438 13.2585 5.94659 12.9856 5.3374C12.9124 5.17747 12.7789 5.05295 12.6143 4.99097C12.4497 4.929 12.2672 4.93459 12.1067 5.00654C11.9462 5.07848 11.8206 5.21094 11.7574 5.37506C11.6941 5.53919 11.6982 5.72166 11.7689 5.88274C11.9508 6.28888 12.0282 6.7341 11.9939 7.1778C11.9597 7.6215 11.815 8.04959 11.573 8.42304C11.3309 8.79649 10.9993 9.10343 10.6083 9.31589C10.2172 9.52834 9.77925 9.63956 9.33423 9.6394H3.33423C3.15742 9.6394 2.98785 9.70964 2.86283 9.83467C2.7378 9.95969 2.66756 10.1293 2.66756 10.3061Z" fill="black"/>
</svg>
