<svg width="16" height="13" viewBox="0 0 16 13" fill="none" xmlns="http://www.w3.org/2000/svg">
<g clip-path="url(#clip0_23068_13008)">
<g clip-path="url(#clip1_23068_13008)">
<mask id="mask0_23068_13008" style="mask-type:luminance" maskUnits="userSpaceOnUse" x="0" y="0" width="16" height="13">
<path d="M0 0.25H16.0001V12.25H0V0.25Z" fill="white"/>
</mask>
<g mask="url(#mask0_23068_13008)">
<path fill-rule="evenodd" clip-rule="evenodd" d="M-1 9.24984H16.9994V12.2498H-1V9.24984ZM-1 0.25H16.9994V3.25002H-1V0.25Z" fill="#FF0000"/>
<path fill-rule="evenodd" clip-rule="evenodd" d="M-1 3.25H16.9994V9.24981H-1V3.25Z" fill="white"/>
<path d="M7.90895 3.2959C7.72591 3.66136 7.60384 3.66136 7.29878 3.90504C7.17677 4.02687 6.99372 4.08778 7.23777 4.20963C6.99372 4.33144 6.87168 4.39238 6.74964 4.63601L6.81065 4.69692C6.81065 4.69692 7.04256 4.58325 7.05473 4.63601C7.09527 4.68471 6.74948 4.87158 6.70483 4.89998C6.6602 4.92839 6.44453 5.06241 6.44453 5.06241C6.13947 5.30609 5.9564 5.24513 5.77335 5.61061L6.38352 5.54974C6.50556 5.97612 6.07844 6.03701 5.77335 6.21977L5.28522 6.52437C5.40728 6.95074 5.77335 6.70709 6.07844 6.58526L6.13947 6.6462V6.768L5.5293 7.07259C5.5293 7.07259 4.80899 7.48472 4.79711 7.49897C4.79219 7.52105 4.79711 7.6208 4.79711 7.6208C5.04116 7.68173 5.40728 7.74265 5.65136 7.6208C5.95642 7.49897 6.01743 7.37714 6.38355 7.37714C5.95642 7.68169 5.65136 7.80354 5.1632 7.86443V8.10811C5.5293 8.10811 5.77335 8.10811 6.07846 8.0472L6.87168 7.80354C7.05473 7.80354 7.23777 7.98628 7.17677 8.169C6.99372 8.83903 6.26148 8.71723 6.01741 9.26543L6.99372 8.89997C7.23777 8.77814 7.48183 8.65631 7.78691 8.71725C8.15301 8.83903 8.15301 9.08273 8.64116 9.20452L8.51915 8.89999C8.64116 8.96088 8.7632 8.96088 8.88522 9.0218C9.19033 9.14367 9.25134 9.26545 9.61741 9.20454C9.31234 8.83905 9.25134 8.89999 9.00726 8.65634C8.7632 8.29085 8.64116 7.74265 9.00726 7.68171L9.43438 7.80356C9.86148 7.86445 9.86148 7.74265 10.4717 7.9863C10.8378 8.10811 10.9598 8.29085 11.3869 8.16902C11.2039 7.74265 10.5327 7.43806 10.1056 7.31623C10.5937 7.01163 10.4717 7.43806 11.1429 7.25529V7.13351C10.6547 6.76802 10.4717 6.46343 9.80048 6.46343L10.8378 6.3416V6.21977C10.8378 6.21977 9.81477 5.95139 9.79098 5.94185C9.79811 5.91091 9.82314 5.86296 9.89106 5.83645C10.0853 5.96222 10.6729 5.94755 10.7062 5.9452C10.6891 5.7953 10.4107 5.67155 10.1666 5.54974C10.1666 5.54974 9.12154 4.90561 9.11636 4.84859C9.13708 4.68534 9.54559 4.87453 9.98355 5.00149C9.86153 4.75784 9.61745 4.63603 9.3734 4.57512L9.73949 4.51423C9.49544 3.966 8.88524 4.02691 8.51917 3.78326C8.27507 3.60052 8.27507 3.47866 7.909 3.29595L7.90895 3.2959Z" fill="#007900"/>
<path fill-rule="evenodd" clip-rule="evenodd" d="M7.24955 7.35329C7.29483 7.20812 7.35445 7.07968 7.08274 6.95594C6.81103 6.83223 7.21856 7.45079 7.24955 7.35329ZM7.57134 7.0629C7.51657 7.07003 7.48791 7.26997 7.59752 7.32468C7.71912 7.34366 7.61902 7.06532 7.57134 7.0629ZM7.88845 7.04158C7.83122 7.05826 7.82885 7.33902 8.02908 7.28908C8.2293 7.23915 8.02666 7.01783 7.88845 7.04158ZM8.25783 6.32064C8.30072 6.25161 8.25546 5.96849 8.0838 6.08744C7.91222 6.20643 8.20298 6.33967 8.25783 6.32064ZM7.88353 6.08509C7.93601 6.06606 7.94077 5.89236 7.79063 5.93758C7.64051 5.98281 7.84308 6.12079 7.88353 6.08509ZM7.54533 6.154C7.54533 6.154 7.44045 6.00885 7.3594 6.03976C7.25691 6.13733 7.55248 6.15636 7.54533 6.154ZM6.38306 6.61783C6.42771 6.62188 6.7587 6.56324 6.87309 6.43478C6.98747 6.30627 6.28418 6.48976 6.28418 6.49213C6.28418 6.4945 6.3506 6.60566 6.38306 6.61783ZM9.69033 5.79845C9.70739 5.7681 9.51415 5.63036 9.39933 5.68464C9.36977 5.78633 9.68937 5.81936 9.69033 5.79845ZM9.0397 5.47103C9.07547 5.41869 8.95631 5.20454 8.71798 5.32351C8.47962 5.44248 8.9682 5.55433 9.0397 5.47103ZM8.28642 5.34494C8.28642 5.34494 8.34598 5.15221 8.48902 5.19025C8.65111 5.31402 8.29355 5.35208 8.28642 5.34494ZM8.1458 5.19986C8.12431 5.14513 7.97416 5.17846 7.80258 5.29028C7.63092 5.40212 8.1982 5.32361 8.1458 5.19986ZM8.58431 4.68119C8.58431 4.68119 8.7372 4.61275 8.78213 4.68119C8.84651 4.78351 8.58195 4.68358 8.58431 4.68119ZM8.45611 4.61415C8.42513 4.55228 8.25595 4.54642 8.26029 4.63583C8.23193 4.70589 8.48013 4.69283 8.45611 4.61415ZM8.05298 4.61439C8.03632 4.57869 7.79564 4.61507 7.72411 4.75954C7.83893 4.81536 8.10546 4.70481 8.05298 4.61439ZM7.53806 4.76204C7.53806 4.76204 7.22142 4.95564 7.20199 5.09755C7.2116 5.22011 7.59523 4.87626 7.59523 4.87626C7.59523 4.87626 7.6286 4.74062 7.53806 4.76204ZM7.18767 4.58603C7.19653 4.54665 7.34412 4.45544 7.35689 4.46228C7.36884 4.50198 7.23635 4.60947 7.18767 4.58603ZM7.28775 5.32595C7.29488 5.26883 6.91116 5.27357 7.05656 5.44965C7.17764 5.59733 7.314 5.35213 7.28775 5.32595ZM6.93853 5.57861C6.91852 5.54001 6.88973 5.43709 6.83719 5.42762C6.79437 5.42521 6.56362 5.47281 6.54598 5.51186C6.53646 5.54279 6.64148 5.73299 6.67727 5.73775C6.7178 5.75439 6.93138 5.59764 6.93853 5.57861ZM9.00877 6.87025C9.02067 6.82982 9.4128 6.6943 9.54818 6.82394C9.70784 7.04284 8.99925 6.93929 9.00877 6.87025ZM10.0864 7.12642C10.1723 6.98101 9.82259 6.80863 9.67411 6.97478C9.72485 7.1744 10.017 7.24665 10.0864 7.12642Z" fill="white" stroke="white" stroke-width="0.0754453" stroke-linecap="round" stroke-linejoin="round"/>
</g>
</g>
</g>
<defs>
<clipPath id="clip0_23068_13008">
<rect width="16" height="12.5" fill="white"/>
</clipPath>
<clipPath id="clip1_23068_13008">
<rect width="16" height="12" fill="white" transform="translate(0 0.25)"/>
</clipPath>
</defs>
</svg>
