<svg width="19" height="15" viewBox="0 0 19 15" fill="none" xmlns="http://www.w3.org/2000/svg">
<path d="M18.9998 5.0774C19.0014 5.42903 18.9011 5.7736 18.7109 6.06939C18.5208 6.36518 18.249 6.59951 17.9284 6.744L15.7974 7.7084L14.607 8.244L11.226 9.7798C10.6872 10.0307 10.1001 10.1608 9.50579 10.1608C8.91146 10.1608 8.32434 10.0307 7.78559 9.7798L4.39279 8.244L3.20239 7.7084L2.01199 7.1608V12.3034C2.09649 12.3565 2.16601 12.4303 2.21394 12.5178C2.26186 12.6053 2.2866 12.7036 2.28579 12.8034V14.0296C2.28657 14.108 2.2717 14.1857 2.24206 14.2583C2.21243 14.3309 2.16861 14.3968 2.11319 14.4522C2.05776 14.5076 1.99184 14.5514 1.91928 14.5811C1.84671 14.6107 1.76897 14.6256 1.69059 14.6248H1.14299C1.0646 14.6256 0.986828 14.6108 0.914242 14.5811C0.841656 14.5515 0.775709 14.5077 0.720263 14.4523C0.664817 14.3968 0.620986 14.3309 0.591337 14.2583C0.561687 14.1858 0.546815 14.108 0.54759 14.0296V12.8036C0.546822 12.7038 0.571595 12.6055 0.619554 12.518C0.667513 12.4304 0.737064 12.3567 0.821591 12.3036V6.8272C0.820763 6.75811 0.832837 6.68947 0.857191 6.6248C0.576457 6.44925 0.348784 6.20061 0.198572 5.90554C0.0483599 5.61047 -0.0187293 5.28009 0.0044943 4.9498C0.0277179 4.61951 0.140379 4.30177 0.330404 4.03062C0.520428 3.75947 0.780653 3.54514 1.08319 3.4106L7.78579 0.375C8.87819 -0.125 10.1338 -0.125 11.2262 0.375L17.9286 3.4108C18.2492 3.55532 18.521 3.78965 18.7111 4.08543C18.9013 4.38121 19.0014 4.72577 18.9998 5.0774ZM11.7142 10.863C11.0224 11.1845 10.2687 11.3511 9.50589 11.3511C8.74303 11.3511 7.98938 11.1845 7.29759 10.863L3.20239 9.0178V10.5416C3.20369 10.9992 3.30946 11.4505 3.51163 11.8611C3.7138 12.2716 4.00704 12.6306 4.36899 12.9106C7.40159 15.228 11.6102 15.228 14.6428 12.9106C15.0032 12.6299 15.2946 12.2705 15.4947 11.8599C15.6948 11.4493 15.7984 10.9984 15.7974 10.5416V9.006L15.095 9.3274L11.7142 10.863Z" fill="black"/>
</svg>
