<svg width="20" height="20" viewBox="0 0 20 20" fill="none" xmlns="http://www.w3.org/2000/svg">
<path d="M19.4998 7.75318C19.5014 8.10482 19.4011 8.44938 19.2109 8.74517C19.0208 9.04096 18.749 9.27529 18.4284 9.41978L16.2974 10.3842L15.107 10.9198L11.726 12.4556C11.1872 12.7065 10.6001 12.8366 10.0058 12.8366C9.41146 12.8366 8.82434 12.7065 8.28559 12.4556L4.89279 10.9198L3.70239 10.3842L2.51199 9.83658V14.9792C2.59649 15.0322 2.66601 15.106 2.71394 15.1936C2.76186 15.2811 2.7866 15.3794 2.78579 15.4792V16.7054C2.78657 16.7838 2.7717 16.8615 2.74206 16.9341C2.71243 17.0066 2.66861 17.0726 2.61319 17.128C2.55776 17.1834 2.49184 17.2272 2.41928 17.2569C2.34671 17.2865 2.26897 17.3014 2.19059 17.3006H1.64299C1.5646 17.3014 1.48683 17.2865 1.41424 17.2569C1.34166 17.2273 1.27571 17.1835 1.22026 17.1281C1.16482 17.0726 1.12099 17.0067 1.09134 16.9341C1.06169 16.8615 1.04681 16.7838 1.04759 16.7054V15.4794C1.04682 15.3796 1.0716 15.2813 1.11955 15.1937C1.16751 15.1062 1.23706 15.0324 1.32159 14.9794V9.50298C1.32076 9.43389 1.33284 9.36525 1.35719 9.30058C1.07646 9.12503 0.848784 8.87639 0.698572 8.58132C0.54836 8.28625 0.481271 7.95587 0.504494 7.62558C0.527718 7.29529 0.640379 6.97755 0.830404 6.7064C1.02043 6.43525 1.28065 6.22092 1.58319 6.08638L8.28579 3.05078C9.37819 2.55078 10.6338 2.55078 11.7262 3.05078L18.4286 6.08658C18.7492 6.2311 19.021 6.46543 19.2111 6.76121C19.4013 7.057 19.5014 7.40155 19.4998 7.75318ZM12.2142 13.5388C11.5224 13.8603 10.7687 14.0269 10.0059 14.0269C9.24303 14.0269 8.48938 13.8603 7.79759 13.5388L3.70239 11.6936V13.2174C3.70369 13.675 3.80946 14.1263 4.01163 14.5368C4.2138 14.9474 4.50704 15.3064 4.86899 15.5864C7.90159 17.9038 12.1102 17.9038 15.1428 15.5864C15.5032 15.3057 15.7946 14.9463 15.9947 14.5357C16.1948 14.1251 16.2984 13.6742 16.2974 13.2174V11.6818L15.595 12.0032L12.2142 13.5388Z" fill="#4D4C5C"/>
</svg>
