<svg width="24" height="24" viewBox="0 0 24 24" fill="none" xmlns="http://www.w3.org/2000/svg">
<path fill-rule="evenodd" clip-rule="evenodd" d="M12 19C11.0807 19 10.1705 18.8189 9.32122 18.4672C8.47194 18.1154 7.70026 17.5998 7.05025 16.9497C6.40024 16.2997 5.88463 15.5281 5.53284 14.6788C5.18106 13.8295 5 12.9193 5 12C5 11.0807 5.18106 10.1705 5.53284 9.32122C5.88463 8.47194 6.40024 7.70026 7.05025 7.05025C7.70026 6.40024 8.47194 5.88463 9.32122 5.53284C10.1705 5.18106 11.0807 5 12 5C13.8565 5 15.637 5.7375 16.9497 7.05025C18.2625 8.36301 19 10.1435 19 12C19 13.8565 18.2625 15.637 16.9497 16.9497C15.637 18.2625 13.8565 19 12 19ZM3 12C3 10.8181 3.23279 9.64778 3.68508 8.55585C4.13738 7.46392 4.80031 6.47177 5.63604 5.63604C6.47177 4.80031 7.46392 4.13738 8.55585 3.68508C9.64778 3.23279 10.8181 3 12 3C13.1819 3 14.3522 3.23279 15.4442 3.68508C16.5361 4.13738 17.5282 4.80031 18.364 5.63604C19.1997 6.47177 19.8626 7.46392 20.3149 8.55585C20.7672 9.64778 21 10.8181 21 12C21 14.3869 20.0518 16.6761 18.364 18.364C16.6761 20.0518 14.3869 21 12 21C9.61305 21 7.32387 20.0518 5.63604 18.364C3.94821 16.6761 3 14.3869 3 12ZM11.062 10V16H12.934V10H11.062ZM11.254 8.92C11.47 9.128 11.718 9.232 11.998 9.232C12.286 9.232 12.534 9.128 12.742 8.92C12.95 8.704 13.054 8.456 13.054 8.176C13.0571 8.03703 13.031 7.89896 12.9772 7.77078C12.9235 7.64259 12.8433 7.52716 12.742 7.432C12.6459 7.33195 12.5303 7.25265 12.4023 7.19899C12.2743 7.14533 12.1367 7.11845 11.998 7.12C11.718 7.12 11.47 7.224 11.254 7.432C11.1527 7.52716 11.0725 7.64259 11.0188 7.77078C10.965 7.89896 10.9389 8.03703 10.942 8.176C10.942 8.456 11.046 8.704 11.254 8.92Z" fill="#121117"/>
</svg>
