<svg width="24" height="24" viewBox="0 0 24 24" fill="none" xmlns="http://www.w3.org/2000/svg">
<path fill-rule="evenodd" clip-rule="evenodd" d="M14.7068 3.29303C14.8943 3.48056 14.9996 3.73487 14.9996 4.00003C14.9996 4.26519 14.8943 4.5195 14.7068 4.70703L7.41379 12L14.7068 19.293C14.8889 19.4816 14.9897 19.7342 14.9875 19.9964C14.9852 20.2586 14.88 20.5094 14.6946 20.6948C14.5092 20.8803 14.2584 20.9854 13.9962 20.9877C13.734 20.99 13.4814 20.8892 13.2928 20.707L5.29279 12.707C5.10532 12.5195 5 12.2652 5 12C5 11.7349 5.10532 11.4806 5.29279 11.293L13.2928 3.29303C13.4803 3.10556 13.7346 3.00024 13.9998 3.00024C14.265 3.00024 14.5193 3.10556 14.7068 3.29303Z" fill="black"/>
</svg>
