<svg width="13" height="12" viewBox="0 0 13 12" fill="none" xmlns="http://www.w3.org/2000/svg">
<path d="M10.1249 10.3371C10.1721 10.4818 9.98753 10.6379 9.85691 10.5433C9.78755 10.493 9.7182 10.4421 9.64885 10.3921L6.63093 8.19963L6.51491 8.28384C5.478 9.03708 4.44135 9.7898 3.4047 10.5433C3.27407 10.6379 3.08948 10.4818 3.13667 10.3371L3.21619 10.0925L4.36626 6.55366L4.27996 6.49134L1.17001 4.23162C1.03026 4.12994 1.0678 3.89137 1.2623 3.89137H5.23109L5.26707 3.78083L6.44686 0.149943C6.45181 0.0897149 6.49066 0.0461734 6.5415 0.0214044C6.55947 0.011721 6.57911 0.00552824 6.59938 0.00315352C6.60929 0.00158915 6.61894 2.4771e-05 6.62885 2.4771e-05C6.6424 -0.000235956 6.65492 0.00158914 6.66822 0.00419641C6.67767 0.00577852 6.68699 0.0080441 6.69611 0.0109753C6.70539 0.0143064 6.71437 0.0184053 6.72297 0.0232295C6.77277 0.0482593 6.81031 0.0915399 6.815 0.150986L6.88618 0.369996L8.03051 3.89216H11.9993C12.1941 3.89216 12.2316 4.13072 12.0916 4.23241L11.8835 4.38363C10.8873 5.10741 9.89106 5.83092 8.89534 6.5547L8.93654 6.68167C9.33311 7.89953 9.72863 9.11843 10.1249 10.3371ZM9.51301 1.97164L9.17797 3.0036C9.15425 3.07582 9.24681 3.1543 9.31225 3.10685L10.194 2.4665L11.0758 3.10685C11.1412 3.1543 11.2333 3.07608 11.2103 3.0036C11.0982 2.65944 10.9869 2.31554 10.875 1.97164L11.742 1.34199C11.8118 1.29114 11.7928 1.17199 11.6956 1.17199H10.6154L10.2861 0.158286C10.2858 0.156461 10.2845 0.154897 10.2842 0.153072L10.2827 0.147857L10.2822 0.147075C10.2789 0.135135 10.2727 0.1242 10.2642 0.115266L10.2605 0.111877C10.2547 0.106318 10.2481 0.101581 10.241 0.0977974C10.2363 0.0950724 10.2314 0.0928022 10.2264 0.0910185C10.2214 0.0891934 10.2162 0.0884112 10.211 0.0873683C10.2055 0.0865861 10.2003 0.0855432 10.1945 0.0855432C10.1875 0.0854214 10.1805 0.0862101 10.1737 0.0878898C10.17 0.0886647 10.1664 0.0895341 10.1627 0.0904971C10.1567 0.0926002 10.151 0.0953083 10.1455 0.0985796C10.1392 0.102086 10.1333 0.106378 10.1281 0.111355C10.1268 0.11292 10.1252 0.113962 10.1239 0.115788C10.1151 0.124797 10.1088 0.135939 10.1056 0.148118L10.1054 0.149161C10.1046 0.15255 10.1025 0.155418 10.1023 0.159068L9.77295 1.17225H8.69276C8.59551 1.17225 8.577 1.29141 8.64661 1.34225L9.51301 1.97164ZM12.9118 6.98334H11.8317L11.5024 5.96963C11.5021 5.96676 11.5003 5.96468 11.4995 5.96181L11.4987 5.95946L11.4984 5.95894C11.4952 5.9467 11.4889 5.93549 11.4802 5.92635L11.4768 5.92322C11.4709 5.91752 11.4642 5.91269 11.457 5.90888C11.4525 5.90618 11.4477 5.904 11.4426 5.90236C11.4377 5.9008 11.4325 5.89975 11.4273 5.89871C11.4218 5.89793 11.4163 5.89689 11.4108 5.89689C11.3863 5.89655 11.3627 5.9056 11.3446 5.92218L11.3399 5.92687C11.3314 5.93559 11.3253 5.94637 11.3222 5.95816L11.3217 5.9592L11.3198 5.96494C11.3196 5.9665 11.3185 5.96754 11.3185 5.96911L10.989 6.98307H9.90879C9.81154 6.98307 9.79303 7.10223 9.86264 7.15281L10.7293 7.78272L10.3943 8.81494C10.3705 8.8869 10.4631 8.96512 10.5285 8.91793L11.4103 8.27732C11.7044 8.49086 11.998 8.70466 12.2921 8.91793C12.3575 8.9659 12.4496 8.88743 12.4266 8.81494C12.3145 8.47078 12.2032 8.12662 12.0913 7.78272L12.9583 7.15281C13.0279 7.10249 13.0091 6.98334 12.9118 6.98334ZM8.13168 9.95667H7.05148L6.72219 8.9427C6.72193 8.93983 6.7201 8.93748 6.71958 8.93488L6.7188 8.93253L6.71854 8.93227C6.71533 8.91997 6.70895 8.90873 6.70002 8.89968L6.6969 8.89629C6.68702 8.8868 6.67518 8.8796 6.66222 8.87517C6.65779 8.87361 6.65335 8.87282 6.6484 8.87178C6.64214 8.87074 6.63641 8.8697 6.63015 8.86996C6.61926 8.87012 6.60846 8.87187 6.59808 8.87517C6.59265 8.87712 6.58742 8.87957 6.58244 8.88247C6.57561 8.88615 6.5693 8.89071 6.56366 8.89603L6.56001 8.89968C6.55142 8.90859 6.54523 8.91953 6.54202 8.93149L6.5415 8.93227L6.53994 8.93696C6.53942 8.93905 6.53837 8.94035 6.53811 8.94244L6.20881 9.95667H5.12862C5.03137 9.95667 5.01286 10.0758 5.08247 10.1261L5.94939 10.7558L5.6141 11.788C5.59063 11.8602 5.68293 11.9385 5.74837 11.8913L6.63015 11.2509L7.51193 11.8913C7.57737 11.939 7.66941 11.8608 7.64646 11.788C7.53435 11.4444 7.42302 11.1 7.31117 10.7558L8.17809 10.1261C8.24796 10.0758 8.22893 9.95667 8.13168 9.95667ZM3.13745 7.15229C3.20733 7.10171 3.18855 6.98255 3.0913 6.98255H2.01111L1.68207 5.96963C1.67987 5.95281 1.67195 5.93725 1.65965 5.92557L1.65704 5.92296C1.6471 5.91336 1.63518 5.90606 1.62211 5.90158C1.61741 5.90002 1.61272 5.89923 1.60803 5.89819C1.60177 5.89715 1.59603 5.8961 1.58978 5.89637C1.57334 5.89673 1.5572 5.90083 1.54258 5.90836C1.53518 5.91229 1.52834 5.9172 1.52225 5.92296L1.52016 5.92505C1.50776 5.9369 1.49976 5.95262 1.49748 5.96963L1.16844 6.98229H0.0879893C-0.00926183 6.98229 -0.0277734 7.10145 0.0418407 7.15203L0.908497 7.78168L0.573202 8.8139C0.549737 8.88586 0.642034 8.96408 0.707476 8.91689L1.58952 8.27628C1.88336 8.48982 2.17719 8.70361 2.47155 8.91689C2.537 8.9646 2.62903 8.88638 2.60583 8.8139L2.27053 7.78194C2.55916 7.57206 2.84804 7.36191 3.13745 7.15229ZM2.75131 1.97164L2.41602 3.0036C2.39255 3.07582 2.48485 3.1543 2.55029 3.10685L3.43207 2.4665L4.31385 3.10685C4.37929 3.1543 4.47133 3.07608 4.44813 3.0036L4.11283 1.97164C4.40198 1.76176 4.6906 1.55161 4.97975 1.34199C5.04962 1.29114 5.03085 1.17199 4.9336 1.17199H3.85341C3.74356 0.834115 3.6338 0.496213 3.52411 0.158286C3.52385 0.1562 3.52281 0.154636 3.52228 0.152811L3.52072 0.148118L3.5202 0.147336C3.51689 0.135421 3.51072 0.124499 3.50221 0.115527L3.49856 0.111877C3.49284 0.106469 3.48644 0.101824 3.47953 0.0980581C3.47035 0.092517 3.46015 0.0888813 3.44954 0.0873683C3.43713 0.084843 3.42433 0.0850209 3.412 0.0878898C3.40835 0.088672 3.40496 0.0891934 3.40131 0.0904971C3.3951 0.092494 3.38915 0.0952064 3.38358 0.0985796C3.37746 0.101975 3.37177 0.106089 3.36663 0.110834L3.36168 0.115788C3.3534 0.124589 3.34733 0.13522 3.34395 0.146814C3.34395 0.147596 3.34369 0.147596 3.34343 0.148118L3.34134 0.154114C3.34108 0.155679 3.34004 0.156722 3.34004 0.158286L3.01074 1.17199H1.93055C1.8333 1.17199 1.81478 1.29114 1.8844 1.34199L2.75131 1.97164Z" fill="#00BBFF"/>
</svg>
