<svg width="24" height="24" viewBox="0 0 24 24" fill="none" xmlns="http://www.w3.org/2000/svg">
<path fill-rule="evenodd" clip-rule="evenodd" d="M12.9718 7.5C12.9718 7.23478 12.8667 6.98043 12.6795 6.79289C12.4924 6.60536 12.2386 6.5 11.974 6.5C11.7093 6.5 11.4555 6.60536 11.2684 6.79289C11.0813 6.98043 10.9762 7.23478 10.9762 7.5V9.5C10.9762 9.76522 11.0813 10.0196 11.2684 10.2071C11.4555 10.3946 11.7093 10.5 11.974 10.5C12.2386 10.5 12.4924 10.3946 12.6795 10.2071C12.8667 10.0196 12.9718 9.76522 12.9718 9.5V7.5ZM18.6663 10.293C18.8534 10.4805 18.9584 10.7348 18.9584 11C18.9584 11.2652 18.8534 11.5195 18.6663 11.707L17.6685 12.707C17.4803 12.8892 17.2283 12.99 16.9666 12.9877C16.705 12.9854 16.4547 12.8802 16.2697 12.6948C16.0847 12.5094 15.9798 12.2586 15.9775 11.9964C15.9753 11.7342 16.0758 11.4816 16.2576 11.293L17.2554 10.293C17.4425 10.1055 17.6963 10.0002 17.9608 10.0002C18.2254 10.0002 18.4792 10.1055 18.6663 10.293ZM0.998047 18C0.998047 17.7348 1.10317 17.4804 1.2903 17.2929C1.47743 17.1054 1.73122 17 1.99586 17H6.9919C6.9875 16.9167 6.98517 16.8334 6.98492 16.75C6.98492 14.067 9.27989 12 11.974 12C14.6681 12 16.963 14.067 16.963 16.75C16.963 16.834 16.9607 16.9173 16.9561 17H21.9521C22.2167 17 22.4705 17.1054 22.6577 17.2929C22.8448 17.4804 22.9499 17.7348 22.9499 18C22.9499 18.2652 22.8448 18.5196 22.6577 18.7071C22.4705 18.8946 22.2167 19 21.9521 19H1.99586C1.73122 19 1.47743 18.8946 1.2903 18.7071C1.10317 18.5196 0.998047 18.2652 0.998047 18ZM14.9554 17C14.9629 16.9169 14.9669 16.8335 14.9674 16.75C14.9674 15.291 13.6892 14 11.974 14C10.2587 14 8.98054 15.291 8.98054 16.75C8.98054 16.8347 8.98453 16.918 8.99252 17H14.9554ZM5.28165 9.293C5.46877 9.10553 5.72252 9.00021 5.98711 9.00021C6.25169 9.00021 6.50544 9.10553 6.69256 9.293L7.69037 10.293C7.78567 10.3852 7.86169 10.4956 7.91398 10.6176C7.96628 10.7396 7.9938 10.8708 7.99495 11.0036C7.99611 11.1364 7.97086 11.2681 7.92069 11.391C7.87052 11.5139 7.79643 11.6255 7.70274 11.7194C7.60905 11.8133 7.49764 11.8875 7.37502 11.9378C7.25239 11.9881 7.121 12.0134 6.98851 12.0123C6.85602 12.0111 6.72509 11.9835 6.60335 11.9311C6.48161 11.8787 6.37151 11.8025 6.27947 11.707L5.28165 10.707C5.09459 10.5195 4.98951 10.2652 4.98951 10C4.98951 9.73484 5.09459 9.48053 5.28165 9.293Z" fill="#121117"/>
</svg>
