<svg width="24" height="24" viewBox="0 0 24 24" fill="none" xmlns="http://www.w3.org/2000/svg">
<g clip-path="url(#clip0_8241_20140)">
<path d="M23.0297 14.7906C22.9293 14.6904 22.8027 14.6208 22.6643 14.5898C22.526 14.5587 22.3817 14.5675 22.2482 14.6151C20.4537 15.2549 18.5145 15.3723 16.6559 14.9538C14.7973 14.5354 13.0956 13.5981 11.7485 12.2509C10.4014 10.9037 9.46423 9.20197 9.04584 7.34334C8.62746 5.48471 8.74505 3.54552 9.38495 1.75106C9.4325 1.6175 9.44123 1.47321 9.41011 1.33489C9.37899 1.19658 9.30931 1.06992 9.20914 0.969597C9.10898 0.869273 8.98242 0.799393 8.84416 0.76806C8.7059 0.736726 8.56159 0.745222 8.42796 0.792562C6.81012 1.36386 5.34196 2.29265 4.1327 3.50981C1.96492 5.67923 0.747467 8.62079 0.748047 11.6877C0.748627 14.7545 1.96719 17.6956 4.1358 19.8642C6.3044 22.0328 9.24549 23.2514 12.3124 23.252C15.3792 23.2525 18.3208 22.0351 20.4902 19.8673C21.7075 18.6579 22.6363 17.1894 23.2075 15.5713C23.2546 15.4377 23.2629 15.2934 23.2315 15.1552C23.2 15.0171 23.1301 14.8906 23.0297 14.7906ZM19.4297 18.8068C18.407 19.8266 17.1769 20.6144 15.8228 21.1167C14.4687 21.619 13.0224 21.8241 11.5821 21.718C10.1417 21.6119 8.74108 21.1971 7.47523 20.5018C6.20938 19.8065 5.10796 18.8469 4.24577 17.6882C3.38358 16.5296 2.78079 15.199 2.47835 13.7868C2.17591 12.3745 2.18088 10.9138 2.49294 9.50363C2.805 8.0935 3.41683 6.76703 4.2869 5.61428C5.15697 4.46153 6.26489 3.50949 7.53545 2.82281C7.15932 4.69536 7.24993 6.63171 7.79929 8.46096C8.34866 10.2902 9.33987 11.9561 10.6855 13.3116C12.0408 14.6574 13.7067 15.6487 15.5359 16.1981C17.3652 16.7475 19.3017 16.838 21.1742 16.4616C20.7105 17.3244 20.1227 18.1146 19.4297 18.8068Z" fill="black"/>
</g>
<defs>
<clipPath id="clip0_8241_20140">
<rect width="24" height="24" fill="white"/>
</clipPath>
</defs>
</svg>
