<svg width="10" height="13" viewBox="0 0 10 13" fill="none" xmlns="http://www.w3.org/2000/svg">
<g opacity="0.5">
<path d="M8.65963 1.65669V1.09715H9.32452C9.36244 1.09715 9.39304 1.06654 9.39304 1.02863V0.0685208C9.39304 0.050348 9.38582 0.0329194 9.37297 0.0200693C9.36012 0.00721914 9.34269 0 9.32452 0L0.0685209 0C0.0503481 0 0.0329194 0.00721914 0.0200693 0.0200693C0.00721912 0.0329194 0 0.050348 0 0.0685208V1.02863C0 1.06654 0.0306042 1.09715 0.0685209 1.09715H0.733417V1.65669C0.733417 3.49294 1.60577 5.16615 2.96075 5.93802C3.05338 6.05854 3.27167 6.3765 3.24079 6.66927C3.22671 6.80198 3.16035 6.91627 3.03794 7.01865C1.63692 7.76967 0.733417 9.46346 0.733417 11.3433V11.9029H0.0685209C0.0595354 11.9028 0.0506313 11.9046 0.0423195 11.908C0.0340078 11.9114 0.026452 11.9164 0.0200857 11.9227C0.0137194 11.9291 0.00866782 11.9366 0.00522101 11.9449C0.0017742 11.9532 -7.07461e-08 11.9621 0 11.9711V12.9315C0 12.9694 0.0306042 13 0.0685209 13H9.32452C9.36244 13 9.39304 12.9694 9.39304 12.9315V11.9711C9.39304 11.9621 9.39127 11.9532 9.38782 11.9449C9.38437 11.9366 9.37932 11.9291 9.37296 11.9227C9.36659 11.9164 9.35903 11.9114 9.35072 11.908C9.34241 11.9046 9.33351 11.9028 9.32452 11.9029H8.65963V11.3433C8.65963 9.464 7.75612 7.76994 6.35483 7.01837C6.23269 6.916 6.16633 6.80171 6.15225 6.66927C6.12165 6.37758 6.33994 6.05854 6.43283 5.93775C7.78754 5.16615 8.65963 3.49348 8.65963 1.65669ZM5.60787 6.72669C5.63821 7.01513 5.78148 7.26267 6.03308 7.46254C6.04635 7.47283 6.06071 7.48231 6.07533 7.49017C7.3125 8.14125 8.112 9.65358 8.112 11.3436V11.6981H1.28104V11.3436C1.28104 9.65385 2.08027 8.14152 3.31744 7.49044C3.33236 7.48273 3.34643 7.47347 3.35942 7.46281C3.61156 7.26348 3.75483 7.01567 3.78517 6.72669C3.84015 6.20371 3.50052 5.73002 3.35183 5.55073C3.32991 5.52402 3.30306 5.50177 3.27275 5.48519C2.0624 4.8211 1.28104 3.31852 1.28104 1.65669V1.30244H8.11227V1.65696C8.11227 3.31906 7.33065 4.82165 6.12083 5.48519C6.09078 5.50204 6.06399 5.52414 6.04175 5.55046C5.89279 5.73056 5.5529 6.20506 5.60787 6.72669Z" fill="black"/>
<path d="M6.83041 3.35857C6.83551 3.34646 6.83704 3.33315 6.83483 3.3202C6.83263 3.30724 6.82677 3.29519 6.81795 3.28545C6.80907 3.27574 6.79756 3.26882 6.78481 3.26555C6.77206 3.26228 6.75864 3.2628 6.74618 3.26703L3.35156 4.36932C3.32854 4.37637 3.3112 4.3956 3.30579 4.41916C3.30037 4.44272 3.30795 4.46764 3.32556 4.48389C3.46669 4.62051 3.62491 4.73831 3.79626 4.83435L3.99641 4.94457L4.13508 5.11168C4.36474 5.38847 4.53158 5.6807 4.63152 5.97916C4.63607 5.9928 4.64479 6.00466 4.65646 6.01307C4.66812 6.02147 4.68214 6.026 4.69652 6.026C4.71089 6.026 4.72491 6.02147 4.73657 6.01307C4.74824 6.00466 4.75697 5.9928 4.76152 5.97916C4.86145 5.68043 5.02856 5.3882 5.25904 5.1106L5.39743 4.94403L5.59731 4.83435C6.09916 4.55918 6.54847 4.0213 6.83041 3.35857ZM5.47056 8.09843L5.37739 8.02476C5.08462 7.79347 4.87716 7.51587 4.7607 7.20035C4.7412 7.14699 4.65237 7.14699 4.6326 7.20035C4.51614 7.51532 4.30868 7.79293 4.01537 8.0253L3.93304 8.0922L3.82579 8.14853C3.01004 8.57807 2.3947 9.63433 2.2582 10.8401C2.25718 10.8496 2.25817 10.8593 2.26112 10.8685C2.26406 10.8776 2.26889 10.886 2.2753 10.8932C2.2817 10.9004 2.28954 10.9061 2.29831 10.9101C2.30707 10.914 2.31657 10.9161 2.32618 10.9162H7.06766C7.0773 10.9162 7.08684 10.9142 7.09564 10.9103C7.10445 10.9063 7.11232 10.9006 7.11874 10.8934C7.12517 10.8862 7.12999 10.8777 7.13291 10.8685C7.13582 10.8594 7.13675 10.8497 7.13564 10.8401C6.99887 9.63351 6.38327 8.57726 5.56779 8.14826L5.47056 8.09843Z" fill="black"/>
</g>
</svg>
