<svg width="20" height="20" viewBox="0 0 20 20" fill="none" xmlns="http://www.w3.org/2000/svg">
<path d="M18.0279 1.86133H1.97239C1.3335 1.86133 0.833496 2.36133 0.833496 2.97244V13.3891C0.833496 14.0002 1.3335 14.528 1.97239 14.528H18.0557C18.6668 14.528 19.1946 14.028 19.1946 13.3891V2.97244C19.1668 2.36133 18.6668 1.86133 18.0279 1.86133ZM10.0002 12.778C7.47239 12.778 5.38905 10.7224 5.38905 8.16688C5.38905 5.63911 7.44461 3.55577 10.0002 3.55577C12.5279 3.55577 14.6113 5.61133 14.6113 8.16688C14.6113 10.7224 12.5279 12.778 10.0002 12.778Z" fill="black"/>
<path d="M12.0835 8.19531C12.0835 8.47309 11.9446 8.72309 11.6946 8.88976L9.38905 10.2786C9.25016 10.362 9.11127 10.3898 8.97238 10.3898C8.8335 10.3898 8.69461 10.362 8.5835 10.2786C8.3335 10.1398 8.16683 9.86198 8.16683 9.5842V6.80642C8.16683 6.52865 8.30572 6.25087 8.5835 6.11198C8.8335 5.97309 9.13905 5.97309 9.38905 6.11198L11.6946 7.50087C11.9446 7.63976 12.0835 7.88976 12.0835 8.19531ZM19.1668 17.0842C19.1668 17.2231 19.0557 17.362 18.889 17.362H5.5835C5.41683 17.8342 4.91683 18.1675 4.27794 18.1675C3.66683 18.1675 3.13905 17.8342 2.97238 17.362H1.36127C1.19461 17.362 1.0835 17.2231 1.0835 17.0842C1.0835 16.9175 1.19461 16.8064 1.36127 16.8064H2.97238C3.11127 16.3342 3.63905 16.0009 4.27794 16.0009C4.91683 16.0009 5.41683 16.3342 5.5835 16.8064H18.889C19.0557 16.8064 19.1668 16.9175 19.1668 17.0842Z" fill="black"/>
</svg>
