<svg width="77" height="65" viewBox="0 0 77 65" fill="none" xmlns="http://www.w3.org/2000/svg">
<g clip-path="url(#clip0_8226_22750)">
<mask id="mask0_8226_22750" style="mask-type:luminance" maskUnits="userSpaceOnUse" x="0" y="0" width="87" height="70">
<path d="M86.3898 0H0.00976562V69.5H86.3898V0Z" fill="white"/>
</mask>
<g mask="url(#mask0_8226_22750)">
<path d="M79.4991 31.8711L69.9893 35.0602V61.9064L79.4991 58.8913V31.8711Z" fill="#3D8738"/>
<path d="M79.4991 31.8711L69.9893 35.0602V61.9064L79.4991 58.8913V31.8711Z" stroke="#2F2F3B" stroke-width="0.171812"/>
<path d="M24.6436 27.5801V54.6873L69.9891 61.8772L69.9311 34.741L24.6436 27.5801Z" fill="#92C268"/>
<path d="M24.6436 27.5801V54.6873L69.9891 61.8772L69.9311 34.741L24.6436 27.5801Z" stroke="#2F2F3B" stroke-width="0.171812"/>
<path d="M24.6436 27.5801V54.6873L69.9891 61.8772L69.9311 34.741L24.6436 27.5801Z" fill="#92C268"/>
<path d="M24.6436 27.5801V54.6873L69.9891 61.8772L69.9311 34.741L24.6436 27.5801Z" stroke="#2F2F3B" stroke-width="0.171812"/>
<path d="M24.6436 27.5801V54.6873L69.9891 61.8772L69.9311 34.741L24.6436 27.5801Z" fill="#92C268"/>
<path d="M24.6436 27.5801V54.6873L69.9891 61.8772L69.9311 34.741L24.6436 27.5801Z" stroke="#2F2F3B" stroke-width="0.171812"/>
<path d="M34.3272 24.7393L24.6289 27.5659L69.873 35.0023L79.5567 31.8132L34.3272 24.7393Z" fill="#92C268"/>
<path d="M34.3272 24.7393L24.6289 27.5659L69.8729 35.0023L79.5567 31.8132L34.3272 24.7393Z" stroke="#2F2F3B" stroke-width="0.171812"/>
<path d="M34.3272 24.7393L24.6289 27.5659L69.873 35.0023L79.5567 31.8132L34.3272 24.7393Z" fill="#92C268"/>
<path d="M34.3272 24.7393L24.6289 27.5659L69.8729 35.0023L79.5567 31.8132L34.3272 24.7393Z" stroke="#2F2F3B" stroke-width="0.171812"/>
<path d="M24.8467 36.625L15.3369 39.6401L60.3925 46.888L70.0763 43.699L24.8467 36.625Z" fill="#92C268"/>
<path d="M24.8467 36.625L15.3369 39.6401L60.3925 46.888L70.0763 43.699L24.8467 36.625Z" stroke="#2F2F3B" stroke-width="0.171812"/>
<path d="M69.8891 42.1338L63.7426 42.8876L63.6846 52.2809L69.9471 52.1649L69.8891 42.1338Z" fill="#2F2F3B"/>
<path d="M24.8467 36.625L15.3369 39.6401L60.3925 46.888L70.0763 43.699L24.8467 36.625Z" fill="#92C268"/>
<path d="M24.8467 36.625L15.3369 39.6401L60.3925 46.888L70.0763 43.699L24.8467 36.625Z" stroke="#2F2F3B" stroke-width="0.171812"/>
<path d="M15.25 39.7852V57.8089L60.2476 64.9898V46.9461L15.25 39.7852Z" fill="#92C268"/>
<path d="M15.25 39.7852V57.8089L60.2476 64.9898V46.9461L15.25 39.7852Z" stroke="#2F2F3B" stroke-width="0.171812"/>
<path d="M15.25 39.7852V57.8089L60.2476 64.9898V46.9461L15.25 39.7852Z" fill="#92C268"/>
<path d="M15.25 39.7852V57.8089L60.2476 64.9898V46.9461L15.25 39.7852Z" stroke="#2F2F3B" stroke-width="0.171812"/>
<path d="M60.1313 53.7305L53.9847 54.4843L53.9268 63.8775L60.1893 63.7616L60.1313 53.7305Z" fill="#2F2F3B"/>
<path d="M69.9888 43.7939L60.3051 46.8091L60.2471 64.9507L70.0468 61.8775L69.9888 43.7939Z" fill="#3D8738"/>
<path d="M69.9888 43.7939L60.3051 46.8091L60.2471 64.9507L70.0468 61.8775L69.9888 43.7939Z" stroke="#2F2F3B" stroke-width="0.171812"/>
<path d="M69.9888 43.7939L60.3051 46.8091L60.2471 64.9507L70.0468 61.8775L69.9888 43.7939Z" fill="#3D8738"/>
<path d="M69.9888 43.7939L60.3051 46.8091L60.2471 64.9507L70.0468 61.8775L69.9888 43.7939Z" stroke="#2F2F3B" stroke-width="0.171812"/>
<path d="M60.2471 55.5283L50.7373 58.7174V67.9657L60.2471 64.9506V55.5283Z" fill="#3D8738"/>
<path d="M60.2471 55.5283L50.7373 58.7174V67.9657L60.2471 64.9506V55.5283Z" stroke="#2F2F3B" stroke-width="0.171812"/>
<path d="M5.37793 51.4688V60.7316L50.7235 67.9215L50.6655 58.5282L5.37793 51.4688Z" fill="#92C268"/>
<path d="M5.37793 51.4688V60.7316L50.7235 67.9215L50.6655 58.5282L5.37793 51.4688Z" stroke="#2F2F3B" stroke-width="0.171812"/>
<path d="M5.37793 51.4688V60.7316L50.7235 67.9215L50.6655 58.5282L5.37793 51.4688Z" fill="#92C268"/>
<path d="M5.37793 51.4688V60.7316L50.7235 67.9215L50.6655 58.5282L5.37793 51.4688Z" stroke="#2F2F3B" stroke-width="0.171812"/>
<path d="M14.931 48.5117L5.26172 51.5703L50.4768 58.7748L60.1605 55.5857L14.931 48.5117Z" fill="#92C268"/>
<path d="M14.931 48.5117L5.26172 51.5703L50.4768 58.7748L60.1605 55.5857L14.931 48.5117Z" stroke="#2F2F3B" stroke-width="0.171812"/>
<mask id="mask1_8226_22750" style="mask-type:alpha" maskUnits="userSpaceOnUse" x="5" y="48" width="56" height="11">
<path d="M14.931 48.5117L5.26172 51.5703L50.4768 58.7748L60.1605 55.5857L14.931 48.5117Z" fill="#92C268"/>
<path d="M14.931 48.5117L5.26172 51.5703L50.4768 58.7748L60.1605 55.5857L14.931 48.5117Z" stroke="#2F2F3B" stroke-width="0.171812"/>
</mask>
<g mask="url(#mask1_8226_22750)">
<path d="M14.931 48.5117L5.26172 51.5703L50.4768 58.7748L60.1605 55.5857L14.931 48.5117Z" fill="#92C268"/>
<path d="M14.931 48.5117L5.26172 51.5703L50.4768 58.7748L60.1605 55.5857L14.931 48.5117Z" stroke="#2F2F3B" stroke-width="0.171812"/>
</g>
<path d="M51.1326 40.771L44.5077 44.4588L38.9053 43.6048L45.6948 39.9463" fill="#2F2F3B"/>
<path d="M44.4539 44.1975L44.4692 53.0481L38.9118 52.1435L38.8965 43.3486" fill="#2F2F3B"/>
<path d="M45.5496 30.5566L45.5264 39.8497L51.107 40.7404V31.8128L45.5496 30.5566Z" fill="#2F2F3B"/>
<path d="M44.6144 53.0481L39.3492 55.8962L33.583 54.6531L39.0569 52.1436" fill="#2F2F3B"/>
<path d="M52.6831 27.6758L46.9609 30.1853L48.4245 32.9717L59.3492 28.6569L52.6831 27.6758Z" fill="#2F2F3B"/>
<path d="M36.3786 22.9991L23.8245 37.176L23.7012 45.7902L26.5788 46.062L41.1045 25.4054L39.6481 23.2988L36.3786 22.9991ZM36.4437 23.0571L33.0805 27.7828L46.2149 36.0992L47.6108 35.4154L47.8084 35.2504L50.9984 30.45L39.7008 23.3882L36.4437 23.0571ZM51.8972 12.1562L38.9661 31.3487L44.069 34.7697L57.6378 15.1134L51.8972 12.1562Z" stroke="#2F2F3B" stroke-width="0.300671"/>
<path d="M36.3786 22.999L23.8245 37.1759L23.7012 45.7901L26.5788 46.0619L41.1045 25.4053L39.6481 23.2987L36.3786 22.999Z" fill="#2151B4"/>
<path d="M36.4433 23.0566L33.0801 27.7823L46.2145 36.0987L47.6104 35.415L47.808 35.25L50.9979 30.4495L39.7004 23.3877L36.4433 23.0566Z" fill="#2151B4"/>
<path d="M51.8968 12.1562L38.9658 31.3487L44.0686 34.7697L57.6375 15.1134L51.8968 12.1562Z" fill="#2151B4"/>
<path d="M60.94 1.76378L46.4804 9.26439L64.6756 19.7317L68.223 20.1014L64.3835 2.38863L60.94 1.76378Z" fill="#2151B4"/>
<path d="M60.94 1.76378L46.4804 9.26439L64.6756 19.7317L68.223 20.1014L64.3835 2.38863L60.94 1.76378Z" stroke="#2F2F3A" stroke-width="0.171812" stroke-linecap="round" stroke-linejoin="round"/>
<path d="M56.6683 16.258L51.3346 13.3016L52.5013 11.1969L57.835 14.1533L56.6683 16.258Z" fill="#2151B4"/>
<path d="M55.5172 12.4766L45.7193 27.1525L39.6007 23.3136L26.7235 37.4696L26.6436 46.2272L40.2805 30.8315L47.5589 35.5502L61.2359 15.5157L55.5172 12.4766Z" fill="#34A1FF"/>
<path d="M55.5172 12.4766L45.7193 27.1525L39.6007 23.3136L26.7235 37.4696L26.6436 46.2272L40.2805 30.8315L47.5589 35.5502L61.2359 15.5157L55.5172 12.4766Z" stroke="#2F2F3B" stroke-width="0.177737"/>
<path d="M64.3972 2.51378L49.9599 9.96012L56.3523 13.583L61.6871 16.3801L68.2418 20.1375L64.3972 2.51378Z" fill="#34A1FF"/>
<path d="M64.3972 2.51378L49.9599 9.96012L56.3523 13.583L61.6871 16.3801L68.2418 20.1375L64.3972 2.51378Z" stroke="#2F2F3A" stroke-width="0.171812" stroke-linecap="round" stroke-linejoin="round"/>
<path d="M60.346 16.5617L55.0123 13.6053L56.1791 11.5007L61.5127 14.457L60.346 16.5617Z" fill="#34A1FF"/>
<path d="M59.7471 63.5445L60.885 56.9199L59.7471 63.5445Z" fill="#3D8738"/>
<path d="M59.7471 63.5445L60.885 56.9199" stroke="#3D8738" stroke-width="2.06175" stroke-linecap="round" stroke-linejoin="round"/>
<path d="M69.6924 60.4128L70.3954 45.2646L69.6924 60.4128Z" fill="#3D8738"/>
<path d="M69.6924 60.4128L70.3954 45.2646" stroke="#3D8738" stroke-width="2.06175" stroke-linecap="round" stroke-linejoin="round"/>
</g>
</g>
<defs>
<clipPath id="clip0_8226_22750">
<rect width="86.4" height="74.9" fill="white"/>
</clipPath>
</defs>
</svg>
