<svg width="24" height="24" viewBox="0 0 24 24" fill="none" xmlns="http://www.w3.org/2000/svg">
<path fill-rule="evenodd" clip-rule="evenodd" d="M12 19C11.0807 19 10.1705 18.8189 9.32122 18.4672C8.47194 18.1154 7.70026 17.5998 7.05025 16.9497C6.40024 16.2997 5.88463 15.5281 5.53284 14.6788C5.18106 13.8295 5 12.9193 5 12C5 11.0807 5.18106 10.1705 5.53284 9.32122C5.88463 8.47194 6.40024 7.70026 7.05025 7.05025C7.70026 6.40024 8.47194 5.88463 9.32122 5.53284C10.1705 5.18106 11.0807 5 12 5C13.8565 5 15.637 5.7375 16.9497 7.05025C18.2625 8.36301 19 10.1435 19 12C19 13.8565 18.2625 15.637 16.9497 16.9497C15.637 18.2625 13.8565 19 12 19ZM3 12C3 10.8181 3.23279 9.64778 3.68508 8.55585C4.13738 7.46392 4.80031 6.47177 5.63604 5.63604C6.47177 4.80031 7.46392 4.13738 8.55585 3.68508C9.64778 3.23279 10.8181 3 12 3C13.1819 3 14.3522 3.23279 15.4442 3.68508C16.5361 4.13738 17.5282 4.80031 18.364 5.63604C19.1997 6.47177 19.8626 7.46392 20.3149 8.55585C20.7672 9.64778 21 10.8181 21 12C21 14.3869 20.0518 16.6761 18.364 18.364C16.6761 20.0518 14.3869 21 12 21C9.61305 21 7.32387 20.0518 5.63604 18.364C3.94821 16.6761 3 14.3869 3 12ZM10.707 11.416L10.779 13.516H12.543L12.567 12.496C13.007 12.432 13.391 12.296 13.719 12.088C14.047 11.88 14.299 11.616 14.475 11.296C14.659 10.968 14.751 10.6 14.751 10.192C14.751 9.656 14.623 9.184 14.367 8.776C14.1141 8.3629 13.7531 8.02678 13.323 7.804C12.883 7.572 12.375 7.456 11.799 7.456C11.111 7.456 10.531 7.624 10.059 7.96C9.59921 8.2898 9.26833 8.76914 9.123 9.316L10.803 9.772C10.8771 9.58535 11.007 9.42611 11.175 9.316C11.351 9.196 11.559 9.136 11.799 9.136C12.143 9.136 12.423 9.236 12.639 9.436C12.7455 9.53027 12.8298 9.64696 12.8858 9.77767C12.9418 9.90838 12.9682 10.0499 12.963 10.192C12.963 10.56 12.847 10.836 12.615 11.02C12.383 11.196 12.079 11.3 11.703 11.332L10.707 11.416ZM10.887 15.856C11.103 16.072 11.359 16.18 11.655 16.18C11.959 16.18 12.219 16.072 12.435 15.856C12.651 15.64 12.759 15.38 12.759 15.076C12.7603 14.9326 12.7322 14.7906 12.6765 14.6585C12.6208 14.5264 12.5386 14.4071 12.435 14.308C12.334 14.2036 12.2127 14.1209 12.0786 14.0652C11.9444 14.0095 11.8003 13.9818 11.655 13.984C11.5116 13.9827 11.3696 14.0108 11.2375 14.0665C11.1054 14.1222 10.9861 14.2044 10.887 14.308C10.7834 14.4071 10.7012 14.5264 10.6455 14.6585C10.5898 14.7906 10.5617 14.9326 10.563 15.076C10.563 15.38 10.671 15.64 10.887 15.856Z" fill="#121117"/>
</svg>
