<svg width="13" height="13" viewBox="0 0 13 13" fill="none" xmlns="http://www.w3.org/2000/svg">
<g clip-path="url(#clip0_16694_8466)">
<path d="M11.3521 2.18867C10.1639 0.848047 8.43477 0 6.5 0C2.90977 0 0 2.90977 0 6.5H1.625C1.625 3.80605 3.80605 1.625 6.5 1.625C7.98535 1.625 9.30313 2.29785 10.1943 3.34648L8.66582 4.875H13V0.54082L11.3521 2.18867ZM6.5 11.375C5.01465 11.375 3.69687 10.7021 2.80566 9.65352L4.33418 8.125H0V12.4592L1.64785 10.8113C2.83613 12.152 4.56777 13 6.5 13C10.0902 13 13 10.0902 13 6.5H11.375C11.375 9.19394 9.19394 11.375 6.5 11.375Z" fill="#095DF3"/>
</g>
<defs>
<clipPath id="clip0_16694_8466">
<rect width="13" height="13" fill="white"/>
</clipPath>
</defs>
</svg>
