<svg width="24" height="24" viewBox="0 0 24 24" fill="none" xmlns="http://www.w3.org/2000/svg">
<path fill-rule="evenodd" clip-rule="evenodd" d="M9.29308 3.29303C9.10561 3.48056 9.0003 3.73487 9.0003 4.00003C9.0003 4.26519 9.10561 4.5195 9.29308 4.70703L16.5861 12L9.29308 19.293C9.19757 19.3853 9.12139 19.4956 9.06898 19.6176C9.01657 19.7396 8.98898 19.8708 8.98783 20.0036C8.98668 20.1364 9.01198 20.2681 9.06226 20.391C9.11254 20.5139 9.18679 20.6255 9.28069 20.7194C9.37458 20.8133 9.48623 20.8876 9.60913 20.9379C9.73202 20.9881 9.8637 21.0134 9.99648 21.0123C10.1293 21.0111 10.2605 20.9835 10.3825 20.9311C10.5045 20.8787 10.6148 20.8025 10.7071 20.707L18.7071 12.707C18.8946 12.5195 18.9999 12.2652 18.9999 12C18.9999 11.7349 18.8946 11.4806 18.7071 11.293L10.7071 3.29303C10.5196 3.10556 10.2652 3.00024 10.0001 3.00024C9.73492 3.00024 9.48061 3.10556 9.29308 3.29303Z" fill="#121117"/>
</svg>
