<svg width="20" height="20" viewBox="0 0 20 20" fill="none" xmlns="http://www.w3.org/2000/svg">
<path d="M17.1741 1.46045H15.4662V3.16834C15.4662 3.50992 15.1816 3.73764 14.8969 3.73764C14.6123 3.73764 14.3276 3.50992 14.3276 3.16834V1.46045H5.21888V3.16834C5.21888 3.50992 4.93423 3.73764 4.64958 3.73764C4.36493 3.73764 4.08028 3.50992 4.08028 3.16834V1.46045H2.37239C1.51844 1.46045 0.892212 2.20054 0.892212 3.16834V5.21782H19.1097V3.16834C19.1097 2.20054 18.085 1.46045 17.1741 1.46045ZM0.892212 6.41334V16.8315C0.892212 17.8562 1.51844 18.5394 2.42932 18.5394H17.2311C18.1419 18.5394 19.1667 17.7993 19.1667 16.8315V6.41334H0.892212ZM5.95896 15.9775H4.59265C4.36493 15.9775 4.13721 15.8068 4.13721 15.5221V14.0989C4.13721 13.8711 4.308 13.6434 4.59265 13.6434H6.01589C6.24361 13.6434 6.47133 13.8142 6.47133 14.0989V15.5221C6.4144 15.8068 6.24361 15.9775 5.95896 15.9775ZM5.95896 10.8539H4.59265C4.36493 10.8539 4.13721 10.6831 4.13721 10.3984V8.97518C4.13721 8.74746 4.308 8.51974 4.59265 8.51974H6.01589C6.24361 8.51974 6.47133 8.69053 6.47133 8.97518V10.3984C6.4144 10.6831 6.24361 10.8539 5.95896 10.8539ZM10.5133 15.9775H9.0901C8.86238 15.9775 8.63466 15.8068 8.63466 15.5221V14.0989C8.63466 13.8711 8.80545 13.6434 9.0901 13.6434H10.5133C10.7411 13.6434 10.9688 13.8142 10.9688 14.0989V15.5221C10.9688 15.8068 10.798 15.9775 10.5133 15.9775ZM10.5133 10.8539H9.0901C8.86238 10.8539 8.63466 10.6831 8.63466 10.3984V8.97518C8.63466 8.74746 8.80545 8.51974 9.0901 8.51974H10.5133C10.7411 8.51974 10.9688 8.69053 10.9688 8.97518V10.3984C10.9688 10.6831 10.798 10.8539 10.5133 10.8539ZM15.0677 15.9775H13.6445C13.4168 15.9775 13.189 15.8068 13.189 15.5221V14.0989C13.189 13.8711 13.3598 13.6434 13.6445 13.6434H15.0677C15.2955 13.6434 15.5232 13.8142 15.5232 14.0989V15.5221C15.5232 15.8068 15.3524 15.9775 15.0677 15.9775ZM15.0677 10.8539H13.6445C13.4168 10.8539 13.189 10.6831 13.189 10.3984V8.97518C13.189 8.74746 13.3598 8.51974 13.6445 8.51974H15.0677C15.2955 8.51974 15.5232 8.69053 15.5232 8.97518V10.3984C15.5232 10.6831 15.3524 10.8539 15.0677 10.8539Z" fill="black"/>
</svg>
