<svg width="19" height="18" viewBox="0 0 19 18" fill="none" xmlns="http://www.w3.org/2000/svg">
<path d="M16.2819 0H14.574V1.70789C14.574 2.04947 14.2894 2.27719 14.0047 2.27719C13.7201 2.27719 13.4354 2.04947 13.4354 1.70789V0H4.32666V1.70789C4.32666 2.04947 4.04202 2.27719 3.75737 2.27719C3.47272 2.27719 3.18807 2.04947 3.18807 1.70789V0H1.48017C0.626228 0 0 0.740087 0 1.70789V3.75737H18.2175V1.70789C18.2175 0.740087 17.1928 0 16.2819 0ZM0 4.95289V15.371C0 16.3958 0.626228 17.0789 1.5371 17.0789H16.3389C17.2497 17.0789 18.2745 16.3389 18.2745 15.371V4.95289H0ZM5.06675 14.5171H3.70044C3.47272 14.5171 3.245 14.3463 3.245 14.0617V12.6384C3.245 12.4107 3.41579 12.183 3.70044 12.183H5.12368C5.3514 12.183 5.57912 12.3538 5.57912 12.6384V14.0617C5.52219 14.3463 5.3514 14.5171 5.06675 14.5171ZM5.06675 9.39342H3.70044C3.47272 9.39342 3.245 9.22263 3.245 8.93798V7.51473C3.245 7.28701 3.41579 7.05929 3.70044 7.05929H5.12368C5.3514 7.05929 5.57912 7.23008 5.57912 7.51473V8.93798C5.52219 9.22263 5.3514 9.39342 5.06675 9.39342ZM9.62114 14.5171H8.19789C7.97017 14.5171 7.74245 14.3463 7.74245 14.0617V12.6384C7.74245 12.4107 7.91324 12.183 8.19789 12.183H9.62114C9.84886 12.183 10.0766 12.3538 10.0766 12.6384V14.0617C10.0766 14.3463 9.90578 14.5171 9.62114 14.5171ZM9.62114 9.39342H8.19789C7.97017 9.39342 7.74245 9.22263 7.74245 8.93798V7.51473C7.74245 7.28701 7.91324 7.05929 8.19789 7.05929H9.62114C9.84886 7.05929 10.0766 7.23008 10.0766 7.51473V8.93798C10.0766 9.22263 9.90578 9.39342 9.62114 9.39342ZM14.1755 14.5171H12.7523C12.5246 14.5171 12.2968 14.3463 12.2968 14.0617V12.6384C12.2968 12.4107 12.4676 12.183 12.7523 12.183H14.1755C14.4032 12.183 14.631 12.3538 14.631 12.6384V14.0617C14.631 14.3463 14.4602 14.5171 14.1755 14.5171ZM14.1755 9.39342H12.7523C12.5246 9.39342 12.2968 9.22263 12.2968 8.93798V7.51473C12.2968 7.28701 12.4676 7.05929 12.7523 7.05929H14.1755C14.4032 7.05929 14.631 7.23008 14.631 7.51473V8.93798C14.631 9.22263 14.4602 9.39342 14.1755 9.39342Z" fill="#4D4C5C"/>
</svg>
