<svg width="24" height="24" viewBox="0 0 24 24" fill="none" xmlns="http://www.w3.org/2000/svg">
<path fill-rule="evenodd" clip-rule="evenodd" d="M17 11C17 11.788 16.8448 12.5682 16.5433 13.2961C16.2418 14.0241 15.7998 14.6855 15.2427 15.2427C14.6855 15.7998 14.0241 16.2418 13.2961 16.5433C12.5682 16.8448 11.788 17 11 17C10.2121 17 9.43189 16.8448 8.70394 16.5433C7.97599 16.2418 7.31455 15.7998 6.7574 15.2427C6.20025 14.6855 5.75829 14.0241 5.45676 13.2961C5.15524 12.5682 5.00004 11.788 5.00004 11C5.00004 9.40874 5.63218 7.88262 6.7574 6.7574C7.88262 5.63218 9.40874 5.00004 11 5.00004C12.5913 5.00004 14.1175 5.63218 15.2427 6.7574C16.3679 7.88262 17 9.40874 17 11ZM15.497 17.618C13.8499 18.7372 11.8447 19.2018 9.87323 18.9211C7.90178 18.6404 6.1059 17.6345 4.83664 16.1001C3.56739 14.5657 2.91602 12.6131 3.00987 10.6239C3.10372 8.63483 3.93604 6.75221 5.34413 5.34413C6.75221 3.93604 8.63483 3.10372 10.6239 3.00987C12.6131 2.91602 14.5657 3.56739 16.1001 4.83664C17.6345 6.1059 18.6404 7.90178 18.9211 9.87323C19.2018 11.8447 18.7372 13.8499 17.618 15.497L20.657 18.535L18.535 20.657L15.497 17.618Z" fill="#6A697C"/>
</svg>
