<svg width="20" height="20" viewBox="0 0 20 20" fill="none" xmlns="http://www.w3.org/2000/svg">
<path d="M0.585067 15.2741H15.8983C16.0356 15.2741 16.1683 15.226 16.2736 15.1384C16.4207 15.0153 19.7758 12.129 19.9804 5.89865H3.53434C3.33054 11.5541 0.240637 14.2124 0.208527 14.2389C0.020276 14.398 -0.0489849 14.6578 0.0357064 14.889C0.119812 15.1196 0.339001 15.2741 0.585067 15.2741ZM19.414 2.38287H16.4842V1.7969C16.4842 1.46876 16.2264 1.21094 15.8982 1.21094C15.5701 1.21094 15.3123 1.46876 15.3123 1.7969V2.38287H12.3434V1.7969C12.3434 1.46876 12.0855 1.21094 11.7574 1.21094C11.4293 1.21094 11.1714 1.46876 11.1714 1.7969V2.38287H8.24162V1.7969C8.24162 1.46876 7.9838 1.21094 7.65566 1.21094C7.32752 1.21094 7.06969 1.46876 7.06969 1.7969V2.38287H4.13988C3.81174 2.38287 3.55391 2.64069 3.55391 2.96883V4.72672H20V2.96883C20 2.64069 19.7421 2.38287 19.414 2.38287Z" fill="black"/>
<path d="M17.0259 16.0362C16.7077 16.3011 16.3083 16.4454 15.898 16.4454H3.55371V18.2033C3.55371 18.5271 3.81579 18.7892 4.13967 18.7892H19.4138C19.7377 18.7892 19.9998 18.5271 19.9998 18.2033V11.6348C18.87 14.4064 17.2935 15.8122 17.0259 16.0362Z" fill="black"/>
</svg>
