<svg width="20" height="18" viewBox="0 0 20 18" fill="none" xmlns="http://www.w3.org/2000/svg">
<path d="M0.585067 14.0631H15.8983C16.0356 14.0631 16.1683 14.0151 16.2736 13.9275C16.4207 13.8043 19.7758 10.9181 19.9804 4.68771H3.53434C3.33054 10.3432 0.240637 13.0014 0.208527 13.028C0.020276 13.187 -0.0489849 13.4469 0.0357064 13.678C0.119812 13.9086 0.339001 14.0631 0.585067 14.0631ZM19.414 1.17193H16.4842V0.585964C16.4842 0.257824 16.2264 0 15.8982 0C15.5701 0 15.3123 0.257824 15.3123 0.585964V1.17193H12.3434V0.585964C12.3434 0.257824 12.0855 0 11.7574 0C11.4293 0 11.1714 0.257824 11.1714 0.585964V1.17193H8.24162V0.585964C8.24162 0.257824 7.9838 0 7.65566 0C7.32752 0 7.06969 0.257824 7.06969 0.585964V1.17193H4.13988C3.81174 1.17193 3.55391 1.42975 3.55391 1.75789V3.51578H20V1.75789C20 1.42975 19.7421 1.17193 19.414 1.17193Z" fill="black"/>
<path d="M17.0269 14.8258C16.7087 15.0907 16.3093 15.2349 15.899 15.2349H3.55469V16.9928C3.55469 17.3167 3.81677 17.5788 4.14065 17.5788H19.4148C19.7387 17.5788 20.0007 17.3167 20.0007 16.9928V10.4243C18.871 13.196 17.2945 14.6017 17.0269 14.8258Z" fill="black"/>
</svg>
