<svg width="24" height="24" viewBox="0 0 24 24" fill="none" xmlns="http://www.w3.org/2000/svg">
<path d="M0.70208 18.3283H19.0779C19.2427 18.3283 19.402 18.2706 19.5283 18.1655C19.7048 18.0177 23.731 14.5542 23.9765 7.07777H4.24121C3.99665 13.8644 0.288765 17.0542 0.250232 17.0861C0.0243312 17.277 -0.0587819 17.5887 0.0428476 17.8662C0.143774 18.1429 0.406802 18.3283 0.70208 18.3283ZM23.2968 2.85883H19.781V2.15567C19.781 1.7619 19.4716 1.45251 19.0779 1.45251C18.6841 1.45251 18.3747 1.7619 18.3747 2.15567V2.85883H14.812V2.15567C14.812 1.7619 14.5027 1.45251 14.1089 1.45251C13.7151 1.45251 13.4057 1.7619 13.4057 2.15567V2.85883H9.88995V2.15567C9.88995 1.7619 9.58056 1.45251 9.18679 1.45251C8.79302 1.45251 8.48363 1.7619 8.48363 2.15567V2.85883H4.96785C4.57408 2.85883 4.26469 3.16822 4.26469 3.56198V5.67145H24V3.56198C24 3.16822 23.6906 2.85883 23.2968 2.85883Z" fill="#6A697C"/>
<path d="M20.4313 19.2433C20.0494 19.5612 19.5702 19.7343 19.0778 19.7343H4.26465V21.8437C4.26465 22.2324 4.57915 22.5469 4.96781 22.5469H23.2968C23.6854 22.5469 23.9999 22.2324 23.9999 21.8437V13.9615C22.6442 17.2875 20.7525 18.9744 20.4313 19.2433Z" fill="#6A697C"/>
</svg>
