<svg width="18" height="18" viewBox="0 0 18 18" fill="none" xmlns="http://www.w3.org/2000/svg">
<path d="M17.9776 6.91594C17.9513 6.83291 17.9012 6.75939 17.8337 6.70437C17.7662 6.64935 17.684 6.61523 17.5974 6.60619L11.7894 5.98969L9.4104 0.619688C9.2664 0.293438 8.73315 0.293438 8.58915 0.619688L6.21165 5.98969L0.402898 6.60619C0.316245 6.61546 0.234139 6.64965 0.166519 6.70463C0.0988983 6.7596 0.0486644 6.833 0.0218983 6.91594C-0.00491891 6.99917 -0.00715398 7.08838 0.0154612 7.17285C0.0380764 7.25733 0.0845815 7.33348 0.149398 7.39219L4.48815 11.3282L3.27615 17.0784C3.26239 17.1441 3.26337 17.212 3.27901 17.2772C3.29466 17.3425 3.32457 17.4035 3.36661 17.4557C3.40864 17.508 3.46175 17.5504 3.5221 17.5797C3.58246 17.609 3.64856 17.6245 3.71565 17.6252C3.79471 17.6252 3.87235 17.6043 3.94065 17.5644L9.00015 14.6274L14.0604 17.5644C14.2134 17.6537 14.4054 17.6432 14.5494 17.5382C14.6197 17.4865 14.6736 17.4156 14.7048 17.3341C14.7359 17.2526 14.7429 17.1638 14.7249 17.0784L13.5129 11.3274L17.8524 7.39144C17.9168 7.33263 17.9629 7.25652 17.9853 7.17221C18.0076 7.08789 18.0052 6.99893 17.9784 6.91594H17.9776Z" fill="#121117"/>
</svg>
