<svg width="16" height="23" viewBox="0 0 16 23" fill="none" xmlns="http://www.w3.org/2000/svg">
<path d="M15.9801 9.64717C15.9567 9.57338 15.9122 9.50802 15.8522 9.45911C15.7921 9.41021 15.7191 9.37988 15.6421 9.37184L10.4795 8.82384L8.3648 4.05051C8.2368 3.76051 7.7628 3.76051 7.6348 4.05051L5.52147 8.82384L0.358132 9.37184C0.281107 9.38008 0.208123 9.41048 0.148016 9.45934C0.0879096 9.50821 0.0432572 9.57345 0.0194652 9.64717C-0.00437236 9.72116 -0.00635909 9.80046 0.0137433 9.87554C0.0338457 9.95063 0.0751836 10.0183 0.132799 10.0705L3.98947 13.5692L2.91213 18.6805C2.89991 18.7389 2.90078 18.7992 2.91468 18.8572C2.92858 18.9152 2.95517 18.9694 2.99254 19.0159C3.0299 19.0624 3.07711 19.1 3.13076 19.126C3.18441 19.1521 3.24317 19.1659 3.3028 19.1665C3.37307 19.1665 3.44209 19.1479 3.5028 19.1125L8.00013 16.5018L12.4981 19.1125C12.6341 19.1918 12.8048 19.1825 12.9328 19.0892C12.9953 19.0432 13.0432 18.9802 13.0709 18.9078C13.0986 18.8353 13.1048 18.7564 13.0888 18.6805L12.0115 13.5685L15.8688 10.0698C15.9261 10.0176 15.9671 9.94992 15.9869 9.87497C16.0068 9.80002 16.0047 9.72095 15.9808 9.64717H15.9801Z" fill="black"/>
</svg>
