<svg width="18" height="18" viewBox="0 0 18 18" fill="none" xmlns="http://www.w3.org/2000/svg">
<path d="M8.87441 8.69232C9.98798 8.69232 10.9523 8.29289 11.7402 7.50486C12.5281 6.71699 12.9275 5.75296 12.9275 4.63926C12.9275 3.52588 12.5281 2.56175 11.74 1.77359C10.952 0.985816 9.98785 0.586426 8.87441 0.586426C7.76067 0.586426 6.79661 0.985816 6.00874 1.77372C5.22087 2.56162 4.82132 3.52578 4.82132 4.63926C4.82132 5.75296 5.22084 6.71712 6.00887 7.50502C6.79691 8.29279 7.76107 8.69232 8.87441 8.69232ZM15.9662 13.5259C15.9434 13.1981 15.8975 12.8404 15.8298 12.4627C15.7615 12.0821 15.6736 11.7224 15.5683 11.3936C15.4596 11.0538 15.3117 10.7182 15.1289 10.3966C14.9391 10.0628 14.7162 9.77213 14.4661 9.53297C14.2046 9.28276 13.8844 9.08158 13.5142 8.9348C13.1452 8.78888 12.7363 8.71493 12.2989 8.71493C12.1271 8.71493 11.961 8.78539 11.6402 8.99429C11.4121 9.1428 11.1834 9.29026 10.954 9.43667C10.7335 9.57714 10.4349 9.70874 10.066 9.82788C9.70619 9.94432 9.34082 10.0034 8.98018 10.0034C8.61957 10.0034 8.25429 9.94432 7.89405 9.82788C7.52562 9.70883 7.22699 9.57727 7.00679 9.4368C6.75142 9.27362 6.52037 9.1247 6.31995 8.99413C5.99951 8.78526 5.83324 8.71476 5.66148 8.71476C5.22393 8.71476 4.81517 8.78884 4.44632 8.93497C4.07631 9.08145 3.75599 9.28263 3.49421 9.5331C3.24427 9.7724 3.02127 10.0629 2.83176 10.3966C2.64909 10.7182 2.5012 11.0537 2.39231 11.3938C2.28714 11.7225 2.19922 12.0821 2.13092 12.4627C2.06325 12.8399 2.01731 13.1977 1.99456 13.5263C1.97194 13.8571 1.96072 14.1885 1.96094 14.52C1.96094 15.3984 2.24017 16.1095 2.79081 16.634C3.33465 17.1515 4.05422 17.4141 4.92928 17.4141H13.0319C13.9069 17.4141 14.6262 17.1516 15.1702 16.634C15.721 16.1099 16.0002 15.3987 16.0002 14.5199C16.0001 14.1808 15.9887 13.8464 15.9662 13.5259Z" fill="black"/>
</svg>
