<svg width="24" height="24" viewBox="0 0 24 24" fill="none" xmlns="http://www.w3.org/2000/svg">
<path d="M21.5599 10.7391L20.1999 9.15908C19.9399 8.85908 19.7299 8.29908 19.7299 7.89908V6.19908C19.7299 5.13908 18.8599 4.26908 17.7999 4.26908H16.0999C15.7099 4.26908 15.1399 4.05908 14.8399 3.79908L13.2599 2.43908C12.5699 1.84908 11.4399 1.84908 10.7399 2.43908L9.16988 3.80908C8.86988 4.05908 8.29988 4.26908 7.90988 4.26908H6.17988C5.11988 4.26908 4.24988 5.13908 4.24988 6.19908V7.90908C4.24988 8.29908 4.03988 8.85908 3.78988 9.15908L2.43988 10.7491C1.85988 11.4391 1.85988 12.5591 2.43988 13.2491L3.78988 14.8391C4.03988 15.1391 4.24988 15.6991 4.24988 16.0891V17.7991C4.24988 18.8591 5.11988 19.7291 6.17988 19.7291H7.90988C8.29988 19.7291 8.86988 19.9391 9.16988 20.1991L10.7499 21.5591C11.4399 22.1491 12.5699 22.1491 13.2699 21.5591L14.8499 20.1991C15.1499 19.9391 15.7099 19.7291 16.1099 19.7291H17.8099C18.8699 19.7291 19.7399 18.8591 19.7399 17.7991V16.0991C19.7399 15.7091 19.9499 15.1391 20.2099 14.8391L21.5699 13.2591C22.1499 12.5691 22.1499 11.4291 21.5599 10.7391ZM16.1599 10.1091L11.3299 14.9391C11.1893 15.0795 10.9986 15.1584 10.7999 15.1584C10.6011 15.1584 10.4105 15.0795 10.2699 14.9391L7.84988 12.5191C7.55988 12.2291 7.55988 11.7491 7.84988 11.4591C8.13988 11.1691 8.61988 11.1691 8.90988 11.4591L10.7999 13.3491L15.0999 9.04908C15.3899 8.75908 15.8699 8.75908 16.1599 9.04908C16.4499 9.33908 16.4499 9.81908 16.1599 10.1091Z" fill="black"/>
</svg>
