<svg width="20" height="20" viewBox="0 0 20 20" fill="none" xmlns="http://www.w3.org/2000/svg">
<path d="M15.0558 14.8292L14.2398 13.1973L13.4238 14.8292H15.0558Z" fill="#4D4C5C"/>
<path d="M18.2428 8.47949H17.4126V6.72313C17.4126 6.64119 17.3954 6.56017 17.3622 6.48529C17.3289 6.41041 17.2803 6.34334 17.2195 6.28841C17.1587 6.23348 17.0871 6.1919 17.0093 6.16637C16.9314 6.14084 16.8491 6.13193 16.7675 6.1402C16.6743 6.14965 14.5845 6.38598 13.5441 8.47949H12.6927V9.76422C12.6927 11.3793 11.3787 12.6932 9.76371 12.6932H8.47898V18.2433C8.47898 19.2121 9.26723 20.0004 10.2361 20.0004H18.2428C19.2116 20.0004 19.9998 19.2121 19.9998 18.2433V10.2366C19.9998 9.26773 19.2116 8.47949 18.2428 8.47949ZM11.3632 16.33L13.7153 11.6259C13.7639 11.5285 13.8387 11.4467 13.9313 11.3894C14.0239 11.3322 14.1306 11.3019 14.2394 11.3019C14.3482 11.3019 14.4549 11.3322 14.5474 11.3894C14.64 11.4467 14.7148 11.5285 14.7635 11.6259L17.1155 16.33C17.2603 16.6194 17.1429 16.9713 16.8535 17.1161C16.5641 17.2609 16.2121 17.1435 16.0674 16.8541L15.6413 16.002H12.8375L12.4114 16.8541C12.3088 17.0594 12.1018 17.1781 11.8869 17.1781C11.7989 17.1781 11.7095 17.1582 11.6254 17.1161C11.3359 16.9714 11.2186 16.6194 11.3632 16.33ZM6.31551 4.93555H5.20508C5.27758 5.51605 5.4634 6.00414 5.76031 6.39742C6.05719 6.00414 6.24301 5.51605 6.31551 4.93555Z" fill="#4D4C5C"/>
<path d="M9.76383 11.5209C10.7327 11.5209 11.5209 10.7327 11.5209 9.76383V1.75711C11.5209 0.788247 10.7327 4.87346e-06 9.76383 4.87346e-06H1.75711C0.788242 4.87346e-06 0 0.788247 0 1.75711V9.76383C0 10.7327 0.788242 11.5209 1.75707 11.5209H2.58723V13.2773C2.58723 13.3592 2.60441 13.4402 2.63767 13.5151C2.67093 13.59 2.71953 13.6571 2.78031 13.712C2.8411 13.7669 2.91274 13.8085 2.99059 13.834C3.06845 13.8596 3.15079 13.8685 3.2323 13.8602C3.32559 13.8507 5.41535 13.6144 6.45578 11.5209H9.76383ZM6.07273 8.15911C5.96596 8.10204 5.86176 8.04026 5.76047 7.97395C5.65918 8.04027 5.55499 8.10205 5.4482 8.15911C4.44844 8.69231 3.45043 8.69844 3.40844 8.69844C3.08484 8.69844 2.8225 8.4361 2.8225 8.1125C2.8225 7.78891 3.08484 7.52657 3.40844 7.52657C3.41359 7.52653 4.13652 7.51602 4.85586 7.14641C4.4443 6.61938 4.11992 5.90426 4.02621 4.93516H3.4084C3.0848 4.93516 2.82246 4.67282 2.82246 4.34922C2.82246 4.02563 3.0848 3.76329 3.4084 3.76329H5.17453V3.4084C5.17453 3.08481 5.43687 2.82247 5.76047 2.82247C6.08406 2.82247 6.34641 3.08481 6.34641 3.4084V3.76329H8.1125C8.43609 3.76329 8.69844 4.02563 8.69844 4.34922C8.69844 4.67282 8.43609 4.93516 8.1125 4.93516H7.49477C7.40102 5.90426 7.07668 6.61938 6.66512 7.14641C7.38441 7.51602 8.10746 7.52649 8.11492 7.52657C8.43852 7.52657 8.69965 7.78891 8.69965 8.1125C8.69965 8.4361 8.43609 8.69844 8.1125 8.69844C8.07051 8.69844 7.0725 8.69235 6.07273 8.15911ZM14.2839 3.35231C14.3984 3.46672 14.5483 3.52395 14.6982 3.52395C14.8482 3.52395 14.9982 3.46676 15.1125 3.35231C15.3414 3.12348 15.3414 2.7525 15.1125 2.52368L14.9443 2.35547C17.1009 2.48325 18.8164 4.27793 18.8164 6.46606C18.8164 6.78965 19.0788 7.052 19.4023 7.052C19.7259 7.052 19.9883 6.78965 19.9883 6.46606C19.9883 3.62727 17.7405 1.30391 14.9313 1.18145L15.1125 1.00024C15.3414 0.771411 15.3414 0.400435 15.1125 0.171606C14.8838 -0.0571826 14.5127 -0.0572217 14.2839 0.171606L13.1079 1.34766C12.8791 1.57649 12.8791 1.94747 13.1079 2.17629L14.2839 3.35231ZM5.70437 16.636C5.47559 16.4072 5.10457 16.4072 4.87574 16.636C4.64691 16.8648 4.64691 17.2358 4.87574 17.4646L5.04395 17.6328C2.88734 17.5051 1.17188 15.7104 1.17188 13.5222C1.17188 13.1986 0.909531 12.9363 0.585938 12.9363C0.262344 12.9363 0 13.1986 0 13.5222C0 16.361 2.24777 18.6844 5.05695 18.8068L4.87574 18.9881C4.64691 19.2169 4.64691 19.5879 4.87574 19.8167C4.99016 19.9311 5.14012 19.9883 5.29004 19.9883C5.43996 19.9883 5.58996 19.9311 5.70434 19.8166L6.88035 18.6406C7.10918 18.4118 7.10918 18.0408 6.88035 17.812L5.70437 16.636Z" fill="#4D4C5C"/>
</svg>
