<svg width="17" height="16" viewBox="0 0 17 16" fill="none" xmlns="http://www.w3.org/2000/svg">
<path fill-rule="evenodd" clip-rule="evenodd" d="M5.15723 15.6744C5.21849 15.7233 5.29232 15.754 5.37023 15.7628C5.44813 15.7717 5.52695 15.7584 5.59762 15.7244C5.6683 15.6905 5.72796 15.6373 5.76976 15.5709C5.81155 15.5046 5.83378 15.4278 5.83389 15.3494V10.4161C5.83378 10.3377 5.81155 10.2609 5.76976 10.1946C5.72796 10.1282 5.6683 10.075 5.59762 10.0411C5.52695 10.0071 5.44813 9.99382 5.37023 10.0027C5.29232 10.0115 5.21849 10.0421 5.15723 10.0911L2.07389 12.5577C2.02523 12.5968 1.98595 12.6463 1.95897 12.7025C1.93198 12.7588 1.91797 12.8204 1.91797 12.8827C1.91797 12.9451 1.93198 13.0067 1.95897 13.063C1.98595 13.1192 2.02523 13.1687 2.07389 13.2077L5.15723 15.6744ZM11.5106 0.0910739C11.4493 0.0421496 11.3755 0.0115042 11.2976 0.00265976C11.2197 -0.00618466 11.1408 0.00713086 11.0702 0.0410758C10.9995 0.0750206 10.9398 0.128217 10.898 0.194553C10.8562 0.260888 10.834 0.33767 10.8339 0.416074V5.34941C10.834 5.42781 10.8562 5.50459 10.898 5.57093C10.9398 5.63726 10.9995 5.69046 11.0702 5.72441C11.1408 5.75835 11.2197 5.77167 11.2976 5.76282C11.3755 5.75398 11.4493 5.72333 11.5106 5.67441L14.5939 3.20774C14.6426 3.1687 14.6818 3.11923 14.7088 3.06297C14.7358 3.00672 14.7498 2.94513 14.7498 2.88274C14.7498 2.82035 14.7358 2.75876 14.7088 2.70251C14.6818 2.64626 14.6426 2.59678 14.5939 2.55774L11.5106 0.0910739Z" fill="black"/>
<path fill-rule="evenodd" clip-rule="evenodd" d="M13.3345 2.88265C13.3345 2.66164 13.2467 2.44967 13.0904 2.29339C12.9341 2.13711 12.7221 2.04932 12.5011 2.04932H5.00112C4.16672 2.04913 3.34555 2.25776 2.61242 2.6562C1.8793 3.05464 1.25755 3.63021 0.803829 4.33047C0.350109 5.03072 0.0788479 5.83339 0.0147678 6.66533C-0.0493122 7.49726 0.0958261 8.332 0.436956 9.09348C0.528472 9.2934 0.695289 9.44905 0.90106 9.52652C1.10683 9.60399 1.33488 9.597 1.53552 9.50707C1.73615 9.41714 1.89312 9.25156 1.97222 9.04641C2.05131 8.84126 2.04613 8.61316 1.95779 8.41182C1.73041 7.90413 1.6337 7.34762 1.67648 6.79299C1.71926 6.23836 1.90016 5.70325 2.2027 5.23644C2.50523 4.76963 2.91979 4.38595 3.40858 4.12038C3.89737 3.85481 4.44485 3.71579 5.00112 3.71598H12.5011C12.7221 3.71598 12.9341 3.62819 13.0904 3.47191C13.2467 3.31563 13.3345 3.10366 13.3345 2.88265ZM3.33446 12.8827C3.33446 13.1037 3.42225 13.3156 3.57853 13.4719C3.73481 13.6282 3.94678 13.716 4.16779 13.716H11.6678C12.5022 13.7162 13.3234 13.5075 14.0565 13.1091C14.7896 12.7107 15.4114 12.1351 15.8651 11.4348C16.3188 10.7346 16.5901 9.93191 16.6541 9.09997C16.7182 8.26804 16.5731 7.4333 16.232 6.67182C16.1404 6.4719 15.9736 6.31625 15.7679 6.23878C15.5621 6.16131 15.334 6.1683 15.1334 6.25823C14.9328 6.34816 14.7758 6.51374 14.6967 6.71889C14.6176 6.92404 14.6228 7.15214 14.7111 7.35348C14.9385 7.86117 15.0352 8.41768 14.9924 8.97231C14.9497 9.52694 14.7688 10.062 14.4662 10.5289C14.1637 10.9957 13.7491 11.3793 13.2603 11.6449C12.7715 11.9105 12.2241 12.0495 11.6678 12.0493H4.16779C3.94678 12.0493 3.73481 12.1371 3.57853 12.2934C3.42225 12.4497 3.33446 12.6616 3.33446 12.8827Z" fill="black"/>
</svg>
