<svg width="24" height="24" viewBox="0 0 24 24" fill="none" xmlns="http://www.w3.org/2000/svg">
<path fill-rule="evenodd" clip-rule="evenodd" d="M8.18887 21.3501C8.26239 21.4088 8.35098 21.4455 8.44447 21.4562C8.53795 21.4668 8.63253 21.4508 8.71734 21.4101C8.80215 21.3693 8.87375 21.3055 8.9239 21.2259C8.97406 21.1463 9.00073 21.0541 9.00087 20.9601V15.0401C9.00073 14.946 8.97406 14.8538 8.9239 14.7742C8.87375 14.6946 8.80215 14.6308 8.71734 14.5901C8.63253 14.5493 8.53795 14.5333 8.44447 14.544C8.35098 14.5546 8.26239 14.5914 8.18887 14.6501L4.48887 17.6101C4.43047 17.6569 4.38334 17.7163 4.35096 17.7838C4.31857 17.8513 4.30176 17.9252 4.30176 18.0001C4.30176 18.0749 4.31857 18.1488 4.35096 18.2163C4.38334 18.2838 4.43047 18.3432 4.48887 18.3901L8.18887 21.3501ZM15.8129 2.65006C15.7393 2.59135 15.6508 2.55458 15.5573 2.54396C15.4638 2.53335 15.3692 2.54933 15.2844 2.59006C15.1996 2.6308 15.128 2.69463 15.0778 2.77423C15.0277 2.85384 15.001 2.94598 15.0009 3.04006V8.96006C15.001 9.05414 15.0277 9.14628 15.0778 9.22589C15.128 9.30549 15.1996 9.36932 15.2844 9.41006C15.3692 9.45079 15.4638 9.46677 15.5573 9.45616C15.6508 9.44554 15.7393 9.40877 15.8129 9.35006L19.5129 6.39006C19.5713 6.34321 19.6184 6.28384 19.6508 6.21634C19.6832 6.14884 19.7 6.07493 19.7 6.00006C19.7 5.92519 19.6832 5.85128 19.6508 5.78378C19.6184 5.71628 19.5713 5.65691 19.5129 5.61006L15.8129 2.65006Z" fill="black"/>
<path fill-rule="evenodd" clip-rule="evenodd" d="M18.0004 5.99988C18.0004 5.73466 17.895 5.48031 17.7075 5.29277C17.5199 5.10524 17.2656 4.99988 17.0004 4.99988H8.00037C6.99909 4.99965 6.01368 5.25001 5.13393 5.72814C4.25419 6.20626 3.50808 6.89695 2.96362 7.73726C2.41915 8.57757 2.09364 9.54077 2.01674 10.5391C1.93985 11.5374 2.11401 12.5391 2.52337 13.4529C2.63319 13.6928 2.83337 13.8796 3.0803 13.9725C3.32722 14.0655 3.60088 14.0571 3.84164 13.9492C4.08241 13.8413 4.27077 13.6426 4.36568 13.3964C4.4606 13.1502 4.45438 12.8765 4.34837 12.6349C4.07552 12.0257 3.95947 11.3578 4.0108 10.6923C4.06213 10.0267 4.27921 9.3846 4.64226 8.82443C5.0053 8.26425 5.50277 7.80384 6.08932 7.48516C6.67586 7.16647 7.33284 6.99964 8.00037 6.99988H17.0004C17.2656 6.99988 17.5199 6.89452 17.7075 6.70698C17.895 6.51945 18.0004 6.26509 18.0004 5.99988ZM6.00037 17.9999C6.00037 18.2651 6.10573 18.5195 6.29326 18.707C6.4808 18.8945 6.73515 18.9999 7.00037 18.9999H16.0004C17.0016 19.0001 17.9871 18.7497 18.8668 18.2716C19.7466 17.7935 20.4927 17.1028 21.0371 16.2625C21.5816 15.4222 21.9071 14.459 21.984 13.4607C22.0609 12.4623 21.8867 11.4607 21.4774 10.5469C21.3675 10.307 21.1674 10.1202 20.9204 10.0272C20.6735 9.93427 20.3999 9.94266 20.1591 10.0506C19.9183 10.1585 19.73 10.3572 19.6351 10.6034C19.5401 10.8496 19.5464 11.1233 19.6524 11.3649C19.9252 11.9741 20.0413 12.6419 19.9899 13.3075C19.9386 13.973 19.7215 14.6152 19.3585 15.1753C18.9954 15.7355 18.498 16.1959 17.9114 16.5146C17.3249 16.8333 16.6679 17.0001 16.0004 16.9999H7.00037C6.73515 16.9999 6.4808 17.1052 6.29326 17.2928C6.10573 17.4803 6.00037 17.7347 6.00037 17.9999Z" fill="black"/>
</svg>
