<svg width="20" height="20" viewBox="0 0 20 20" fill="none" xmlns="http://www.w3.org/2000/svg">
<path fill-rule="evenodd" clip-rule="evenodd" d="M6.82324 17.7916C6.88451 17.8405 6.95834 17.8712 7.03624 17.88C7.11414 17.8889 7.19296 17.8755 7.26364 17.8416C7.33431 17.8076 7.39398 17.7545 7.43577 17.6881C7.47757 17.6218 7.4998 17.545 7.49991 17.4666V12.5333C7.4998 12.4549 7.47757 12.3781 7.43577 12.3117C7.39398 12.2454 7.33431 12.1922 7.26364 12.1583C7.19296 12.1243 7.11414 12.111 7.03624 12.1198C6.95834 12.1287 6.88451 12.1593 6.82324 12.2083L3.73991 14.6749C3.69125 14.714 3.65197 14.7634 3.62498 14.8197C3.59799 14.8759 3.58398 14.9375 3.58398 14.9999C3.58398 15.0623 3.59799 15.1239 3.62498 15.1802C3.65197 15.2364 3.69125 15.2859 3.73991 15.3249L6.82324 17.7916ZM13.1766 2.20826C13.1153 2.15934 13.0415 2.12869 12.9636 2.11985C12.8857 2.111 12.8069 2.12432 12.7362 2.15826C12.6655 2.19221 12.6058 2.2454 12.564 2.31174C12.5223 2.37808 12.5 2.45486 12.4999 2.53326V7.46659C12.5 7.545 12.5223 7.62178 12.564 7.68812C12.6058 7.75445 12.6655 7.80765 12.7362 7.84159C12.8069 7.87554 12.8857 7.88885 12.9636 7.88001C13.0415 7.87116 13.1153 7.84052 13.1766 7.79159L16.2599 5.32493C16.3086 5.28589 16.3478 5.23641 16.3748 5.18016C16.4018 5.12391 16.4158 5.06232 16.4158 4.99993C16.4158 4.93754 16.4018 4.87594 16.3748 4.81969C16.3478 4.76344 16.3086 4.71397 16.2599 4.67493L13.1766 2.20826Z" fill="black"/>
<path fill-rule="evenodd" clip-rule="evenodd" d="M15 4.99935C15 4.77834 14.9122 4.56637 14.7559 4.41009C14.5996 4.25381 14.3877 4.16602 14.1666 4.16602H6.66665C5.83225 4.16583 5.01107 4.37446 4.27795 4.7729C3.54483 5.17134 2.92308 5.74691 2.46936 6.44717C2.01564 7.14742 1.74438 7.95009 1.6803 8.78203C1.61622 9.61396 1.76135 10.4487 2.10248 11.2102C2.194 11.4101 2.36082 11.5658 2.56659 11.6432C2.77236 11.7207 3.00041 11.7137 3.20104 11.6238C3.40168 11.5338 3.55865 11.3683 3.63774 11.1631C3.71684 10.958 3.71165 10.7299 3.62332 10.5285C3.39594 10.0208 3.29923 9.46432 3.34201 8.90969C3.38478 8.35506 3.56569 7.81995 3.86822 7.35314C4.17076 6.88633 4.58531 6.50265 5.0741 6.23708C5.56289 5.97151 6.11037 5.83249 6.66665 5.83268H14.1666C14.3877 5.83268 14.5996 5.74489 14.7559 5.5886C14.9122 5.43232 15 5.22036 15 4.99935ZM4.99998 14.9994C4.99998 15.2204 5.08778 15.4323 5.24406 15.5886C5.40034 15.7449 5.6123 15.8327 5.83332 15.8327H13.3333C14.1677 15.8329 14.9889 15.6242 15.722 15.2258C16.4551 14.8274 17.0769 14.2518 17.5306 13.5515C17.9843 12.8513 18.2556 12.0486 18.3197 11.2167C18.3838 10.3847 18.2386 9.55 17.8975 8.78852C17.806 8.5886 17.6391 8.43295 17.4334 8.35548C17.2276 8.27801 16.9996 8.285 16.7989 8.37493C16.5983 8.46486 16.4413 8.63044 16.3622 8.83559C16.2831 9.04074 16.2883 9.26884 16.3766 9.47018C16.604 9.97787 16.7007 10.5344 16.658 11.089C16.6152 11.6436 16.4343 12.1787 16.1317 12.6456C15.8292 13.1124 15.4146 13.496 14.9259 13.7616C14.4371 14.0272 13.8896 14.1662 13.3333 14.166H5.83332C5.6123 14.166 5.40034 14.2538 5.24406 14.4101C5.08778 14.5664 4.99998 14.7783 4.99998 14.9994Z" fill="black"/>
</svg>
