<svg width="24" height="24" viewBox="0 0 24 24" fill="none" xmlns="http://www.w3.org/2000/svg">
<path fill-rule="evenodd" clip-rule="evenodd" d="M8.18691 21.3503C8.26043 21.409 8.34903 21.4458 8.44251 21.4564C8.536 21.467 8.63058 21.451 8.71539 21.4103C8.8002 21.3696 8.87179 21.3057 8.92195 21.2261C8.9721 21.1465 8.99878 21.0544 8.99891 20.9603V15.0403C8.99878 14.9462 8.9721 14.8541 8.92195 14.7745C8.87179 14.6949 8.8002 14.631 8.71539 14.5903C8.63058 14.5496 8.536 14.5336 8.44251 14.5442C8.34903 14.5548 8.26043 14.5916 8.18691 14.6503L4.48691 17.6103C4.42852 17.6572 4.38139 17.7165 4.349 17.784C4.31662 17.8515 4.2998 17.9254 4.2998 18.0003C4.2998 18.0752 4.31662 18.1491 4.349 18.2166C4.38139 18.2841 4.42852 18.3435 4.48691 18.3903L8.18691 21.3503ZM15.8109 2.6503C15.7374 2.5916 15.6488 2.55482 15.5553 2.54421C15.4618 2.53359 15.3672 2.54957 15.2824 2.59031C15.1976 2.63104 15.126 2.69488 15.0759 2.77448C15.0257 2.85408 14.999 2.94622 14.9989 3.0403V8.96031C14.999 9.05439 15.0257 9.14653 15.0759 9.22613C15.126 9.30573 15.1976 9.36957 15.2824 9.4103C15.3672 9.45104 15.4618 9.46701 15.5553 9.4564C15.6488 9.44579 15.7374 9.40901 15.8109 9.35031L19.5109 6.3903C19.5693 6.34345 19.6164 6.28409 19.6488 6.21659C19.6812 6.14908 19.698 6.07517 19.698 6.0003C19.698 5.92544 19.6812 5.85152 19.6488 5.78402C19.6164 5.71652 19.5693 5.65716 19.5109 5.6103L15.8109 2.6503Z" fill="black"/>
<path fill-rule="evenodd" clip-rule="evenodd" d="M17.9994 6C17.9994 5.73478 17.894 5.48043 17.7065 5.29289C17.519 5.10536 17.2646 5 16.9994 5H7.99939C6.99812 4.99978 6.0127 5.25013 5.13296 5.72826C4.25321 6.20639 3.50711 6.89707 2.96264 7.73738C2.41818 8.57769 2.09266 9.54089 2.01577 10.5392C1.93887 11.5375 2.11304 12.5392 2.52239 13.453C2.63221 13.6929 2.83239 13.8797 3.07932 13.9726C3.32624 14.0656 3.5999 14.0572 3.84067 13.9493C4.08143 13.8414 4.26979 13.6427 4.36471 13.3965C4.45962 13.1503 4.4534 12.8766 4.34739 12.635C4.07454 12.0258 3.95849 11.358 4.00982 10.6924C4.06116 10.0269 4.27824 9.38473 4.64128 8.82455C5.00433 8.26437 5.50179 7.80396 6.08834 7.48528C6.67489 7.16659 7.33186 6.99976 7.99939 7H16.9994C17.2646 7 17.519 6.89464 17.7065 6.70711C17.894 6.51957 17.9994 6.26522 17.9994 6ZM5.99939 18C5.99939 18.2652 6.10475 18.5196 6.29229 18.7071C6.47982 18.8946 6.73418 19 6.99939 19H15.9994C17.0007 19.0002 17.9861 18.7499 18.8658 18.2717C19.7456 17.7936 20.4917 17.1029 21.0361 16.2626C21.5806 15.4223 21.9061 14.4591 21.983 13.4608C22.0599 12.4625 21.8858 11.4608 21.4764 10.547C21.3666 10.3071 21.1664 10.1203 20.9195 10.0274C20.6725 9.93439 20.3989 9.94279 20.1581 10.0507C19.9174 10.1586 19.729 10.3573 19.6341 10.6035C19.5392 10.8497 19.5454 11.1234 19.6514 11.365C19.9242 11.9742 20.0403 12.642 19.989 13.3076C19.9376 13.9732 19.7206 14.6153 19.3575 15.1755C18.9945 15.7356 18.497 16.196 17.9104 16.5147C17.3239 16.8334 16.6669 17.0002 15.9994 17H6.99939C6.73418 17 6.47982 17.1054 6.29229 17.2929C6.10475 17.4804 5.99939 17.7348 5.99939 18Z" fill="black"/>
</svg>
